<svg version="1" xmlns="http://www.w3.org/2000/svg" width="5577.333" height="5577.333" viewBox="0 0 4183.000000 4183.000000"><path d="M1528.1 69.5c-2.4 1.9-4.7 3.5-5.1 3.5-1.2 0-2-2.8-1.4-4.5.9-2.2-.1-1.9-5.2 2-5.8 4.4-7.8 4.6-7.2.5.3-2 .1-2.7-.6-2.1-.6.4-3 2.2-5.3 4-4.5 3.6-6.8 3.4-6-.5.2-1.3.2-2.4 0-2.4-.3 0-2.8 1.8-5.5 4-6.2 4.9-8.2 5.2-7.6 1 .3-1.7.3-3 .1-3-.2 0-2.9 2-6 4.4-3.1 2.5-6.1 4.2-6.6 3.9-.5-.3-.7-1.8-.5-3.4.5-3.2.5-3.2-7 2.5-4.3 3.2-5.5 3.7-6.3 2.5-.5-.8-.6-2.2-.3-3.2.7-2.3.5-2.3-5.6 2.3-6.6 4.9-8.4 5.1-7.8 1l.4-3-3 2.3c-9 6.8-9.6 7.1-10.8 5.9-.9-.9-.9-1.8 0-3.7 1.4-3 1.9-3.3-7.9 4.2-6.7 5.2-8.3 5.4-7.7 1.3.3-1.7.3-3 .1-3-.8 0-29.1 23-31.6 25.8-3.1 3.2-4.4 9.1-3.3 13.7.5 1.9 1.1 2.5 2.3 2.1 1.3-.5 1.5.2.9 5.6-.4 3.7-.2 6.9.4 7.8.7 1.2 1 .8 1-1.7 0-5.9 1.8-4.4 2.5 2.2.6 5.1 1 6.3 2 5.5 2-1.7 4.7 0 4.2 2.6-.4 2.2-.3 2.3 2.5.8 2.5-1.3 2.9-1.3 3.4.1.3.8.4 2.2 0 3-.6 1.7.9 2.1 1.9.5 1.4-2.2 3.5-1 3.5 2 0 2.8.2 3 2 2 2.1-1.1 2.5-.2 2 4.3-.1 1.6.2 1.7 1.9.7 1.7-.9 2.2-.8 2.7.5.4.8.4 2.5.1 3.7-.4 1.6-.3 1.8.6.9.6-.6 2.2-1.1 3.5-1.1 2.1 0 2.4.4 2 2.5-.6 2.8.3 3.2 2.2 1 2.1-2.5 4-1.8 4 1.5 0 2.8.2 3 2 2 2.3-1.3 3.6.6 2.7 4-.5 1.8-.3 1.9 2.4.5 3.9-2.1 4.2-1.9 3.7 1.5-.5 3.6-.4 3.6 3 .9l2.7-2.1.3 3.6c.3 3.2.5 3.5 2.3 2.6 2.3-1.3 3.5.7 2.6 4.1-.5 1.8-.2 1.8 3-.7 2.8-2.1 3.7-2.4 4.4-1.3.4.8.5 2.5.2 3.8-.6 2.3-.5 2.3 2 .7 2.4-1.6 2.6-1.6 3.1.2.4 1.1.3 2.7 0 3.7-.6 1.6-.5 1.6 2.4.1 4.2-2.2 4.5-2.1 4 1.4-.5 3.6-.4 3.6 3 .9l2.7-2.1.5 3.6c.4 2.9.8 3.4 2 2.6 2.9-1.9 4.3-1.2 3.8 2-.4 2.9-.4 3 1.6 1.5 5.4-3.8 5.6-3.8 5.6 0 0 3.3.2 3.5 2 2.5 2.7-1.5 4.3-.3 3.6 2.6-.8 2.9.5 3.1 2.9.4 2.7-2.9 4.5-2.5 4.5 1 0 2.8.2 3 2.1 1.9 2.5-1.3 4 .1 3.2 3.2-.7 2.5.9 2.4 3.2-.1 2.7-2.9 4.5-2.5 4.5 1 0 2.8.2 3 2.1 1.9 2.5-1.3 4 .1 3.2 3.2-.7 2.5.9 2.4 3.2-.1 2.7-2.9 4.5-2.5 4.5 1 0 2.8.2 3 2 2 2.7-1.5 4.3-.3 3.6 2.6-.8 2.9.5 3.1 2.9.4 2.7-2.9 4.5-2.5 4.5 1 0 2.7.2 3 1.9 2 3.3-1.7 4.4-1.2 3.9 2-.3 1.6-.3 3 0 3 .2 0 1.8-1.2 3.6-2.7l3.1-2.6.5 3.6c.4 2.9.8 3.5 2 2.7.8-.5 2.3-1 3.4-1 1.5 0 1.7.5 1.2 3.1l-.6 3.1 3.3-2.8 3.2-2.7.3 3.7.3 3.7 3.4-2.1c3.8-2.3 5.1-1.5 4.1 2.7l-.7 2.5 3-2.1 3-2.2.7 2.5c.3 1.4.2 3.1-.2 3.8-.5.7.3.5 1.6-.4 5.9-4.2 6-4.2 6-.2v3.6l2.5-1.6c2.3-1.5 2.6-1.5 3.1-.1.4.8.4 2.4.1 3.5-.6 2.5-.8 2.5 3.3-.5 4.4-3.2 5-3.1 5 .5 0 2.9 1.3 4 2.5 2 .3-.6 1.3-1 2.2-1 1.1 0 1.4.8 1.1 3-.3 1.6-.3 3-.1 3 .3 0 2-1.2 3.9-2.6l3.4-2.6v7.4l3.5-2.2c3.1-1.9 3.6-2 4.1-.6.3.9.4 2.5.1 3.6-.5 2-.5 2 2.4-.1 2.6-1.8 3-1.9 3.5-.5.4.9.4 2.5.1 3.6-.7 2.6-.1 2.5 3.5-.5s5.2-2.4 4.4 1.7l-.6 3 2.6-1.7c2.2-1.4 2.8-1.5 3.5-.4.5.8.6 2.2.3 3.1-.7 2.3.2 2.3 3.3-.2 3.5-2.7 4.3-2.5 4.3 1 0 3.3.6 3.6 3.4 1.5 3-2.3 3.9-1.8 3.4 1.9l-.4 3.4 3.3-2.5 3.2-2.5.7 2.6c.3 1.3.3 3-.1 3.5-1.1 1.9.6 1.2 3.7-1.4 3.5-3 5.2-2.4 4.6 1.6-.4 2.8-.4 2.9 1.9 1.4 3.1-2.1 4.6-1 3.9 2.7l-.6 2.9 3.8-3.1 3.7-3.1.3 3.6c.4 4.1.6 4.2 3.9 1.5 3.6-2.8 4.6-2.5 4.1 1.4l-.4 3.4 2.7-1.9c3.1-2.2 3.9-1.7 3.9 2.4v2.9l3.1-2.6c3.9-3.4 4.9-3.3 4.9.4 0 2.9 1.3 4 2.5 2 .3-.6 1.5-1 2.7-1 1.7 0 2 .5 1.6 2.9l-.4 2.9 3.2-2.5 3.3-2.5.7 2.6c.3 1.3.3 3-.1 3.5-1.1 1.9.6 1.2 3.7-1.4 3.5-3 5.2-2.4 4.6 1.6-.4 2.9-.4 2.9 2 1.3 3.3-2.2 5.6-1.1 4.7 2.3l-.6 2.6 3.5-2.7 3.5-2.7.7 2.5c.3 1.4.3 3-.1 3.5-1.1 1.8.5 1.2 4-1.5l3.4-2.6.7 2.6c.3 1.3.2 3.1-.2 3.8-.5.8.3.6 1.9-.5 3.7-2.4 4.7-2.1 4.7 1.4v3.1l3.5-2.6 3.4-2.7.7 2.5c.3 1.4.3 3-.1 3.5-1.1 1.8.5 1.2 4.1-1.5 2.9-2.3 3.5-2.4 4-1 .3.9.4 2.5.1 3.6-.5 2-.5 2 3-.1 2.9-1.8 3.7-1.9 4.4-.8.5.8.9 2 .9 2.6 0 1.8 1.5 1.6 3-.2 1.1-1.4 1.5-1.4 3.7.1 1.4.8 3.2 1.3 4.1.9 2-.7 1.8-.5-3.2 3.4-4.1 3.3-7.6 4-7.6 1.7 0-3-1.8-2.3-8.6 3.1-3.8 3.1-6.2 5.4-5.3 5.1 6.8-2.5 38.8-12.4 48.9-15.2 76.3-21.3 162.7-35.1 256.5-41 38-2.5 39-2.5 59.5-3.3 25-.9 102.3-.9 129.5.1 40.1 1.3 99.1 4.9 125 7.6 13 1.4 13.5 1.3 13.5-1.1 0-1.9-.1-1.9-2.2-.5-3.6 2.5-5.1 2-4.6-1.4.5-3.6.4-3.7-3.4-.5-3.5 2.9-5.2 2.4-4.6-1.6.4-2.4.2-2.6-1.3-1.8-1 .5-2.1 1.4-2.4 1.9-1.4 2.2-3.5 1-3.5-2s0-3-2.5-1.4c-2.3 1.5-2.5 1.5-3.1 0-.3-.9-.4-2.5-.1-3.6.6-2.5.8-2.5-3.3.5-3.8 2.8-5.4 1.9-4.3-2.5.6-2.4.6-2.4-2.1-.7-2.3 1.6-2.7 1.6-3.2.2-.4-.8-.4-2.4-.1-3.5.5-1.8.3-1.9-2.4-.5-3.8 2-3.9 2-3.9-1.6v-3l-3 2.1c-2.8 2-3 2-3.2.3 0-1-.1-2.6 0-3.6.2-1.9-1.3-2.3-2.3-.7-1 1.6-2.5.1-2.5-2.6 0-2.8-.7-2.9-3.4-.9-2.9 2.2-3.6 1.9-3.6-1.6 0-3.1 0-3.1-2.5-1.5-2.3 1.5-2.5 1.5-2.7-.1 0-1-.1-2.6 0-3.6.2-2-.9-2.2-2.6-.5-1.4 1.4-2.7-1.2-1.9-4.2.4-1.6.2-1.8-1.3-1-1 .6-2.6 1-3.6 1-1.3 0-1.5-.6-1-3.1l.6-3-2.6 2c-3.6 2.8-4.4 2.6-4.4-.9 0-3.2-.9-3.7-2.8-1.8-1.4 1.4-2.7-1.3-1.9-4.2.5-2.1-.7-2.8-1.8-1-1 1.7-2.5.1-2.5-2.7 0-2-.4-2.4-1.7-1.8-5.2 2.1-5.6 2-5-1.4l.7-3.2-3 2.1-3 2.1v-3.5c0-3.7-.8-4.4-2.8-2.4-1.4 1.4-2.7-1.3-1.9-4.2.5-2.1-.7-2.8-1.8-1-1 1.6-2.5.1-2.5-2.6 0-2.8-.7-3-3.8-.8-2 1.4-2.3 1.4-2.8-.1-.4-.8-.4-2.4-.1-3.5.5-2 .5-2-2.4.1l-2.9 2v-3.5c0-3.7-.8-4.4-2.8-2.4-1.4 1.4-2.7-1.3-1.9-4.2.6-2.2-.3-2.6-2-.9-1.7 1.7-3.5 0-2.9-2.7.8-2.9.2-3-3.2-.3l-2.7 2.1-.3-3.7c-.3-3.6-.3-3.6-2.8-2-2.2 1.4-2.4 1.4-2.5-.2-.1-1-.1-2.6 0-3.6.3-2-1-2.2-2.7-.5-1.4 1.4-2.7-1.3-1.9-4.2.6-2.4-.1-2.5-2.7-.5-3 2.3-3.9 1.8-3.4-1.9l.4-3.4-2.4 1.9c-3.4 2.6-4.2 2.4-4.2-1.1 0-3.2-.9-3.7-2.8-1.8-1.4 1.4-2.7-1.3-1.9-4.2.5-2.1-.7-2.8-1.8-1-.3.5-1.5 1-2.7 1-1.8 0-2-.4-1.4-3l.6-3.1-3.5 2.7-3.5 2.6v-3.6c0-3.5-1.2-4.7-2.5-2.6-1.1 1.8-2.5 0-2.5-3.1v-3l-3 2.1c-2.6 1.9-3.1 1.9-3.6.6-.4-.9-.4-2.5-.1-3.6.5-2 .5-2-2.3 0-2.5 1.8-2.9 1.8-3.4.4-.4-.9-.4-2.5-.1-3.5.7-2.1-.5-2.5-2.2-.8-1.9 1.9-3.6-.1-2.9-3.3l.6-2.9-3.4 2.6c-4.2 3.2-4.6 3.1-4.6-.5 0-3-1.3-4-2.5-2-1.1 1.8-2.5 0-2.5-3.1v-3l-3.5 2.7c-3 2.3-3.6 2.4-4.1 1-.3-.9-.4-2.6-.1-3.7.5-1.9.4-1.9-1.8-.5-2.7 1.8-3.5 1.2-3.5-2.6v-2.9l-3.3 2.5c-3.7 2.8-4.7 2.6-4.7-1.1 0-2.4-1.4-3.1-2.5-1.3s-2.5 0-2.5-3.1v-3l-3.3 2.5c-4.3 3.3-4.7 3.3-4.7-.4 0-2.9-1.3-4-2.5-2-.3.5-1.3 1-2.2 1-1.1 0-1.4-.8-1.1-3.4l.4-3.4-3.7 2.9c-3.5 2.7-3.8 2.8-4.3 1.1-.4-1.1-.4-2.7 0-3.6.8-2.1-.5-2-3.6.4-3.4 2.7-4 2.5-4-1 0-3.3-1.1-3.8-3-1.5-1.7 2.1-3 .9-3-2.6v-3l-3.3 2.5c-1.9 1.5-3.7 2.6-4 2.6-.4 0-.7-1.6-.7-3.6v-3.5l-2.6 2c-3.9 3.1-5.7 2.7-5.2-.8.5-3.1-.1-3.2-3.5-.2-1.6 1.3-1.9 1.3-2.7.1-.5-.8-.6-2.6-.3-4 .6-2.4.6-2.4-3.5.8-3.8 3.1-4.1 3.1-4.7 1.2-.3-1.1-.3-3 .1-4.2.6-1.9.2-1.8-3.1 1-4.4 3.5-5.9 3.3-5.3-.9.5-3.4.4-3.5-2.9-.9-3.8 3-5.6 2.6-5.1-1 .4-2.9.4-3-1.6-1.5-3.4 2.5-4.7 2.8-5.8 1.7-.8-.8-.8-1.9.1-3.8l1.2-2.6-3.9 3.1c-4.3 3.4-5.2 3.2-5.2-1.1v-2.9l-3.5 2.6c-4 3.1-5.9 2.5-5.1-1.7l.6-2.9-3.7 3c-2.1 1.7-4.1 3.1-4.5 3.1-.5 0-.8-1.6-.8-3.6v-3.6l-3.9 3.1c-2.1 1.7-4.2 3.1-4.5 3.1-.3 0-.6-1.6-.6-3.6v-3.6l-3.9 3.1c-4.2 3.4-5.1 3.2-5.1-1.2v-2.9l-3.9 3.1c-4.2 3.4-5.1 3.2-5.1-1.2v-2.9l-3.9 3.1c-4.2 3.4-5.1 3.2-5.1-1.2v-2.9l-3.9 3.1c-2.1 1.7-4.2 3.1-4.5 3.1-.3 0-.6-1.6-.6-3.6v-3.6l-3.9 3.1c-2.1 1.7-4.2 3.1-4.5 3.1-.3 0-.6-1.6-.6-3.6v-3.6l-4 3.2c-4.5 3.6-6.5 3.2-5.6-1.2l.6-3-3.9 3.1c-4.9 3.9-5.9 3.9-6.3.1l-.3-3.1-3.7 3.1c-4.2 3.5-6.2 3.1-5.6-1.1l.4-2.8-2.8 2c-1.5 1.1-3 2.4-3.3 2.9-.4.6-1.5 1-2.7 1-1.7 0-2-.5-1.6-3 .3-1.7.4-3 .3-3-.1 0-2.2 1.6-4.6 3.5-2.4 1.9-4.7 3.5-5.1 3.5-.5 0-.8-1.6-.8-3.6v-3.5l-4.3 3.5c-4.8 3.9-5.7 3.8-5.7-.7v-2.9l-4.1 3.3c-3.3 2.6-4.3 2.9-5 1.8-.5-.8-.7-2.5-.4-3.8.6-2.3.5-2.3-3.3.8-5 3.9-6.2 3.9-6.2 0v-3.1l-4.2 3.1c-2.3 1.7-4.6 3.1-5.1 3.1s-.7-1.5-.5-3.4l.4-3.5-4.8 3.5c-5.1 3.8-7.3 3.7-6.5-.2.6-3.1.3-3-4.5.8-3.2 2.5-4.2 2.8-4.9 1.7-.4-.8-.5-2.5-.2-3.9.6-2.4.4-2.3-4 1.3-4.8 3.9-5.3 3.9-5.9-1.1-.3-2.2-.3-2.2-4.1.9-3.2 2.6-4.1 2.9-4.8 1.8-.5-.8-.7-2.5-.4-3.7l.6-2.4-3 2.1c-1.7 1.2-3.3 2.6-3.6 3.1-.4.6-1.3 1-2.2 1-1.1 0-1.4-.8-1.1-3.4l.4-3.4-2.8 1.9c-1.5 1.1-3 2.4-3.3 2.9-.4.6-1.5 1-2.7 1-1.7 0-2-.5-1.6-3 .3-1.7.4-3 .3-3-.1 0-1.9 1.3-4 3-2.1 1.6-4.4 3-5.3 3-1 0-1.3-.8-1-3 .6-3.7.2-3.7-4.2 0-4.5 3.9-6.4 3.9-5.8 0 .3-1.7.3-3 0-3-.2 0-2.2 1.4-4.4 3.2-3.2 2.5-4.2 2.8-4.9 1.7-.4-.8-.5-2.5-.2-3.9.6-2.4.6-2.4-3.4.8-5.3 4.2-6.6 4.1-6.1-.3l.4-3.4-4.2 3.4c-2.3 1.9-4.5 3.5-4.8 3.5-.2 0-.6-1.6-.8-3.5l-.3-3.6-3.7 3.1c-4.3 3.6-6.3 3.1-5.4-1.2l.6-2.9-3 2.1c-1.6 1.1-3.2 2.5-3.5 3-.4.6-1.3 1-2.2 1-1.1 0-1.4-.8-1.1-3.4l.4-3.4-2.9 2.1c-5.6 4.2-5.7 4.3-6.6 2.8-.5-.7-.6-2.2-.4-3.2.7-2.4.4-2.4-3.7.6-4.6 3.4-6.3 3.3-5.8-.4.5-3.2.3-3.2-4.8.6-2.6 2-3.3 2.1-4.3.9-.6-.7-.9-2.1-.5-3 .9-2.2-.2-2-4 .9-4.4 3.4-5.9 3.2-5.4-.5.3-1.7.3-3 .1-3-.2 0-2.2 1.4-4.5 3-4.5 3.3-6.3 2.7-5.1-1.8.6-2.4.5-2.3-3.7.7-4.8 3.5-6.5 3.2-5.6-1l.5-2.9-4.1 3c-5.3 3.8-6.1 3.8-5.6-.4l.4-3.4-3.7 2.9c-4.7 3.7-5.9 3.7-5.9-.2v-3.1l-3.4 2.6c-4.5 3.4-5.6 3.3-5.6-.5v-3.1l-4.2 3.1c-4.6 3.4-6.2 2.7-5.1-1.9.6-2.3.5-2.4-1.3-1-1 .8-2.9 2.3-4.1 3.3-2.8 2.5-4.7 1.3-3.9-2.5.7-3.3.3-3.2-5.1 1.5-2.7 2.4-4.6 1.3-4.1-2.4.5-3.1.1-3-4.9 1.4-2.7 2.4-4.6 1.3-4.1-2.4.5-3.1.1-3-4.9 1.4-2.7 2.4-4.6 1.3-4.1-2.4.5-3.1.1-3-4.9 1.4-2.7 2.4-4.6 1.3-4.1-2.4.5-3.1.1-3-4.9 1.4-2.7 2.4-4.6 1.3-4.1-2.4.5-3.1.1-3-4.9 1.4-2.7 2.4-4.6 1.3-4.1-2.4.3-1.6.4-2.9.3-2.9-.1 0-1.9 1.3-4 3-2.1 1.6-4.2 3-4.6 3-.5 0-.9-1.4-.9-3 0-3.6-.4-3.7-4.2-.5-3.8 3.2-4.6 3.2-5-.5l-.3-3.1-4.2 3.1c-4 2.9-4.2 3-4.8 1-.3-1.1-.3-2.4 0-3 1.1-1.9-1.6-1-4.9 1.5-3.4 2.6-4.6 2.4-4.6-.7 0-2.3-1.8-2.3-5 .2s-5 2.5-5 0c0-2.7-1.9-2.5-6 .5-1.9 1.4-3.8 2.5-4.2 2.5-.4 0-.8-1.1-.8-2.5 0-3.2-1.4-3.2-5.2 0-3.5 2.9-5.3 2.8-5.2-.4.1-2.7-1-2.7-5 .4-1.8 1.4-4.1 2.5-5.1 2.5-1.3 0-1.6-.6-1.3-2.5.7-3.3.2-3.2-5.1 1z"/><path d="M2914 203c-81.6 3.4-163.7 10.9-243 22.1-35.7 5-77.3 11.9-81.3 13.5-2.1.8-4.2 1.2-4.7.9-2.5-1.5-8.2 1.2-16.4 7.6-10.3 8.1-15 9.2-11.5 2.7 1.5-2.7.7-2.2-11.4 7.4-10.8 8.6-13.2 9.5-12.5 4.8.3-1.7.4-3 .3-3-.2 0-4.2 3.1-9 7-9.8 7.8-12 8.6-11.3 4 .3-1.7.3-3 0-3-.2 0-3.8 2.7-7.9 6-4.2 3.3-7.9 6-8.3 6-1.5 0-2-3.2-.8-5.3 1-1.9.6-1.8-2.8.7-2.1 1.6-5.2 4-6.7 5.3-1.6 1.3-3.8 2.3-4.9 2.3-1.7 0-1.9-.4-1.4-2.5.4-1.4.4-2.5 0-2.5-.3 0-2.9 1.8-5.6 4-6.2 4.9-8.2 5.2-7.6 1 .3-1.7.4-3 .2-3-.1 0-2.8 2-6 4.5-4.8 3.8-5.9 4.3-6.7 3-.4-.8-.5-2.4-.2-3.5.9-2.7.5-2.6-4.6 1.5-5.5 4.3-6.9 4.4-6.9.4v-3.1l-4.2 3.4c-3.5 2.8-5 3.4-7.8 3.1-1.9-.2-25.8 1.6-53 4.1-71.4 6.6-314.8 28.8-454.5 41.6-66 6-139.7 12.8-163.8 15-24.1 2.2-44.6 4-45.5 3.9-1 0 .3-.8 2.7-1.8 2.9-1.2 4-2.1 3.2-2.6-.8-.4-1-1.7-.6-3.2.7-2.9.9-3-8 4.1-8.1 6.5-11.1 7.2-10.1 2.5.6-3 .5-3-7.3 3-9 7-11.7 7.8-10.7 3l.6-3.1-4.3 3.4c-10.9 8.8-12.6 10-13.7 9.3-.7-.4-1-1.8-.7-3.1.2-1.3.2-2.4 0-2.4s-3.9 2.7-8.1 6c-8.9 6.8-10.6 7.4-10 3.1.5-3.5.8-3.7-9.5 4.3-6.3 4.9-8 5.7-8.7 4.6-.5-.8-.7-2.3-.4-3.3.3-.9.3-1.7 0-1.7-.4 0-4 2.7-8.2 6-8.6 6.8-10.8 7.5-10.2 3.1.5-3.5.6-3.5-8.2 3.4-3.6 2.9-7.3 5.5-8.2 5.8-2.1.7-2.8-1-1.7-4.1l.9-2.3-2.7 2c-1.6 1.1-5.4 4.1-8.6 6.6-7.1 5.5-9.2 5.8-8.3 1.4l.6-3.1-3.8 2.8c-2 1.5-5.9 4.5-8.5 6.6-6 4.7-8.1 4.9-7.5.8l.4-3-3.5 2.7c-2 1.5-6 4.6-9 7-5.9 4.8-7.6 5-7.6 1 .1-3 .3-3.1-9.7 4.6-7.8 6-11.7 7.1-10.3 2.7.3-1.1.3-2-.2-2-.4.1-4.4 3-8.8 6.5-4.4 3.6-8.6 6.5-9.2 6.5-.8 0-1.3-1.3-1.3-3.1v-3.1l-5.7 4.7c-9.8 7.9-13.2 10-14.5 8.7-.9-.9-.8-1.8 0-3.7 1.1-2.3.4-2-4.8 2.2-14.2 11.4-17.7 13-16.7 7.7.2-1.3.3-2.4.1-2.4-.2 0-4.7 3.4-10 7.5-10.7 8.3-12.9 9.1-12.2 4.5l.4-3-3.5 2.7c-2 1.5-6.9 5.3-10.9 8.5s-7.8 5.8-8.3 5.8c-1.7 0-2.1-2.8-.8-5.2 1-1.9 1-2.1-.2-1.2-.8.6-6 4.8-11.7 9.3-5.7 4.4-11.2 8.1-12.3 8.1-2.2 0-2.6-2.9-.7-4.8 3.5-3.5-1.2-.2-11.8 8.3-7.4 5.9-12.8 9.5-14.3 9.5-1.4 0-2.1-.5-1.8-1.3 2.2-5.2 2.2-5.3.1-3.6-1 .9-6.4 5.2-12 9.7-17.6 14.1-21.2 15.9-20 10.2l.6-3.1-6.8 5.4c-3.7 2.9-12.5 10-19.6 15.6-12.6 10-20.9 15.2-22.2 13.8-.4-.4 0-1.5.8-2.4 3.4-4.1 2.9-4.6-1.2-1.3-13.5 10.5-44 35.1-44 35.5 0 .2.7.2 1.5-.1 1-.4 1.5 0 1.5 1.1 0 2.3-8.9 11.5-19.1 19.6-7.9 6.3-8.5 7.1-8.1 9.8.4 2.7-.3 3.8-5.4 8.7-3.9 3.7-5.8 6.3-5.6 7.5.4 2.2-2.6 7.5-5.8 10.4-1.1 1-2 2.8-2 4 0 1.3-.7 3.6-1.5 5.1-.9 1.9-1.5 5.7-1.5 10.7 0 7.4.1 7.7 1.9 6.7 1.6-.8 2.1-.6 2.6.9.3 1 .3 2.6-.1 3.5-.7 1.7 1.1 2.3 2.1.6.3-.6 1.5-1 2.7-1 1.8 0 2 .4 1.4 3l-.6 3.1 3.5-2.7 3.5-2.6v3.6c0 3.5 1.2 4.7 2.5 2.6 1.1-1.8 2.5 0 2.5 3.3 0 2.4.3 2.8 1.2 1.9 2.3-2.3 4.1-1.4 3.6 1.8-.5 3.6-.4 3.6 2.9 1 3.5-2.7 4.3-2.5 4.3 1 0 3 1.3 4 2.5 2 1.1-1.8 2.5 0 2.5 3.2 0 2.6.2 2.8 1.5 1.8 2-1.6 3.8-.2 3.2 2.6-.5 2.9-.2 3 3 .4 3.5-2.7 4.3-2.5 4.3 1 0 3 1.3 4 2.5 2 1.1-1.8 2.5 0 2.5 3.1 0 2.7.2 2.8 2 1.7 2.5-1.6 4.1.2 3.2 3.5-.5 1.9-.2 1.8 3.1-.7l3.7-2.8v3.6c0 3.5 1.2 4.7 2.5 2.6s2.5-.8 2.5 2.7c0 2.9.3 3.4 1.2 2.5.7-.7 2.1-1.2 3.1-1.2 1.6 0 1.8.6 1.5 2.9l-.4 2.9 3.2-2.4c3.1-2.4 3.3-2.4 3.8-.6.4 1.1.4 2.7 0 3.6-.7 1.9.7 2.1 2.4.4 1.8-1.8 3.3.9 2.5 4.2l-.6 2.5 3.3-2.8c2.9-2.5 3.5-2.6 4.2-1.3.5.9.6 2.6.2 3.8-.6 2.1-.6 2.2 1.9.6 2.9-2 3.7-1.5 3.7 2.5 0 2.5.2 2.8 1.5 1.7 2.5-2 4.7-.5 3.9 2.7l-.7 2.8 3.6-2.8c3.9-2.9 4.3-2.7 3.8 2.5-.3 2.1 1 2.3 2.7.6 1.8-1.8 3.3.9 2.5 4.1l-.6 2.4 3.5-2.6c3.7-2.9 4.8-2.7 4.8 1 0 2.4 1.4 3.1 2.5 1.3s2.5 0 2.5 3.1c0 2.9 0 2.9 2.5 1.3 3-2 4.9-1 4 2.3-.6 2.6.2 2.5 3.7-.5 1.6-1.3 1.8-1.3 2.4.2.3.9.4 2.5.1 3.6-.6 2.2.3 2.6 2 .9.7-.7 1.9-.9 2.8-.5 1.3.5 1.5 1.3 1 3.3l-.6 2.6 3.5-2.7 3.5-2.7.7 2.5c.3 1.4.3 3-.1 3.5-.8 1.4.8 1.4 2.2 0 1.9-1.9 3.6.1 2.9 3.3l-.6 3 4-3.2 4-3.2v3.6c0 3.7.8 4.4 2.7 2.5 1.9-1.9 3.6.1 2.9 3.3l-.6 2.9 3.4-2.6c1.8-1.4 3.6-2.5 3.9-2.5.4 0 .7 1.6.7 3.7 0 3.5.1 3.6 1.9 1.9 2.6-2.4 4.5-1.1 3.7 2.6l-.6 2.9 3.4-2.6c1.8-1.4 3.6-2.5 3.9-2.5.4 0 .7 1.6.7 3.7 0 3.5.1 3.6 1.9 1.9 2.6-2.4 4.5-1.1 3.7 2.6l-.6 2.9 3.4-2.6c1.8-1.4 3.6-2.5 3.9-2.5.4 0 .7 1.6.7 3.7 0 3.5.1 3.6 1.9 1.9 2.6-2.4 4.5-1.1 3.7 2.6l-.6 3 4-3.2c4.3-3.4 4.6-3.1 4.1 3-.2 2.4-.2 2.4 1.8.6 2-1.9 5.1-1.6 5.1.4 0 .6-.5 2.1-1.1 3.3-.9 1.6-.3 1.4 3-1.2 3.4-2.7 4.2-3 4.7-1.7.3.9.4 2.5.1 3.6-.6 2.4-.3 2.5 2.8.4 3-2 4.9-1 4 2.3-.5 2.1-.4 2.3 1.4 1.3 1.1-.5 2.3-1.5 2.6-2 1.1-1.8 2.5 0 2.5 3.2v3l3.5-2.6c3-2.3 3.6-2.5 4.1-1.1.4.8.4 2.4.1 3.5-.6 2.4.1 2.5 2.5.3 1.7-1.5 2-1.5 2.8-.3.5.8.6 2.6.3 3.9l-.6 2.4 3.5-2.6c1.9-1.5 3.8-2.7 4.1-2.7.4 0 .7 1.6.7 3.6v3.5l2.6-2c3.7-2.9 4.7-2.6 4.2 1.4l-.4 3.4 3.2-2.4c3.6-2.7 4.4-2.4 4.4 1.8v2.9l3.4-2.6c1.9-1.4 3.7-2.6 4-2.6.3 0 .6 1.6.6 3.7 0 3.4.1 3.5 1.8 2 1-1 2.7-1.7 3.6-1.7 1.5 0 1.7.6 1.4 3l-.4 3 3.2-2.5c3.6-2.7 4.4-2.4 4.4 1.8v2.9l3.4-2.6c1.9-1.4 3.7-2.6 4-2.6.3 0 .6 1.6.6 3.7 0 3.4.1 3.5 1.8 2 1-1 2.7-1.7 3.6-1.7 1.4 0 1.7.6 1.4 2.9-.4 2.5-.2 2.8 1.2 2.1.9-.5 2.2-1.6 2.9-2.4 1.8-2.2 3.1-1.1 3.1 2.6v3l3.6-2.7c2.9-2.2 3.8-2.5 4.5-1.4.5.8.7 2.4.4 3.7l-.6 2.4 3.5-2.7c3.9-3 6-2.5 5.3 1.1-.5 2.7.5 3.1 2.3.9.7-.8 2.1-1.5 3.2-1.5 1.7 0 1.9.5 1.6 2.9-.5 3.2.2 3.2 3.9-.2 2.4-2.1 2.9-1.7 3.5 3.1.3 2.2.3 2.2 4.1-.8 3.1-2.6 3.8-2.9 4.3-1.6.4.9.4 2.7.2 4.1l-.5 2.4 3.7-2.9c2.1-1.7 4.1-3 4.4-3 .3 0 .6 1.6.6 3.6v3.5l3.3-2.5c4.5-3.5 6-3.4 5.5.4-.5 3.6-.4 3.6 2.9 1 3.7-2.9 5.3-2.6 5.3 1.2v3.1l2.3-2c1.2-1.2 3.1-2.3 4.2-2.5 1.6-.2 2 .2 1.8 2.4-.2 3.3.7 3.5 3.2.8 1-1.1 2.7-2 3.8-2 1.6 0 1.8.5 1.5 2.9-.5 3.2.2 3.2 3.9-.2 2.9-2.6 5.7-1.6 5.1 1.8-.5 2.6-.3 2.6 4.4-.8 3.1-2.3 5.2-1.4 4.4 1.9-.8 3-.8 3 3.4-.1 4.6-3.4 6.3-3.3 5.8.4-.5 3.2-.6 3.2 5.1-.6 3.8-2.6 5.5-2.1 4.8 1.3-.6 3.1-.3 3 4.4-.7 4.4-3.5 6.4-3 5.5 1.3l-.6 3 4.4-3.6c2.4-2 4.7-3.6 5-3.6.2 0 .6 1.6.8 3.5l.3 3.6 3.8-3.2c4.5-3.7 7.3-3.3 6.2.8-.6 2.6-.6 2.6 1.7.9 4.5-3.3 8.3-5.6 9.2-5.6.4 0 .6 1.3.4 3-.3 1.6-.2 3 0 3 .3 0 2.5-1.6 4.8-3.6 4.8-3.9 6.8-3.7 6.2.7l-.4 2.8 2.9-2.2c4.3-3.3 8.1-5.7 9-5.7.4 0 .7 1.4.7 3.1v3.1l5.1-4.1c5.6-4.4 7.3-4.4 6.7 0-.5 3.2-.2 3.1 6.5-2.4 5.3-4.4 8.4-4.5 7.3-.1-.8 3-.2 2.8 6.5-2.8 2.6-2.1 5.1-3.8 5.7-3.8 1.6 0 2 2.2 1 4.9-.7 1.9-.6 2.2.4 1.4.7-.5 3.7-2.9 6.6-5.1 6.5-5.1 8.6-5.4 8-1.3-.5 3.5-.5 3.5 7.8-3.1 7.4-5.8 9.9-6.3 9-1.7-.5 2.4-.3 2.9.7 2.2.6-.5 3.8-3.1 7-5.6 5.6-4.5 7.6-5.4 9-4.1.3.3.2 1.7-.3 3s-.8 2.4-.6 2.4c.3 0 4.1-2.9 8.7-6.5s8.8-6.4 9.3-6.2c.6.2 1.1 1.6 1.1 3-.1 1.5.1 2.7.3 2.7.2 0 3.6-2.6 7.5-5.8 9.1-7.5 11.7-8.9 12.8-7.1.4.7.3 2.1-.2 3.1s-.7 1.8-.3 1.8c.3 0 5.1-3.6 10.6-8 10.6-8.4 14.4-10 13.6-5.5-.3 1.4-.3 2.5 0 2.5.2 0 4.6-3.3 9.6-7.3 11.6-9.4 14.2-11.1 16.1-10.3 1.2.4 1.3 1.1.5 3.2l-1.1 2.7 3.8-2.9c2.1-1.5 8.2-6.3 13.6-10.7 5.4-4.3 11-8.5 12.5-9.3 3.5-1.8 5-.4 3.3 3.3-1.2 2.6-1.2 2.7.6 1.2 6.5-5.6 32.7-26.2 35.5-27.9 4.4-2.7 5.1-2.5 4.6.9-.3 2-.1 2.8.6 2.3.6-.3 11.2-8.7 23.5-18.5 21.5-17.1 28.3-21.8 29.7-20.4.4.4.2 1.9-.5 3.4-1 2.1-1 2.5.1 1.6.7-.5 11.3-8.9 23.4-18.5 27.4-21.8 29.3-22.9 28-16.7l-.6 3.1 4.3-3.4c15.8-12.8 18.7-14.9 19.8-14.3.6.5.9 1.9.5 3.7l-.6 3 3.9-3.1c5.1-4.1 7.5-4.1 6.9-.1l-.4 3 3.3-2.6c3.9-3 5.7-2.3 4.9 1.8l-.6 3 4.1-3.3c3.3-2.6 4.3-2.9 5-1.8.4.8.5 2.5.2 3.9-.6 2.4-.5 2.4 3.5-.9 4.7-3.7 6.7-3.3 5.8 1.1l-.6 2.9 3-2.1c1.6-1.1 3.2-2.5 3.5-3 .4-.6 1.5-1 2.7-1 1.8 0 2 .4 1.4 3.1l-.6 3.1 5-3.7c5.2-3.9 7.5-3.8 6.7.1-.2 1.3-.2 2.4.1 2.4.3 0 2.5-1.6 4.9-3.6 4.4-3.6 4.8-3.5 5.5 1.3.3 2.2.4 2.2 4.7-1.2 5-4 6.7-4 6.4-.1-.2 3 .1 2.9 5.8-1.6 5.3-4 6.5-3.7 5.9 1.6-.2 1.8 0 1.7 2.7-.2 1.5-1.2 3.9-3 5.3-4.1 3.6-2.9 5-2.6 5 1v3.1l4.3-3.4c2.3-1.9 5-3.7 5.9-4.1 1.8-.6 3.1 1.4 2.2 3.8-.9 2.1.6 1.9 3.3-.7 3.3-3.1 3.9-1.7 2 4.9-1.7 5.8-10.7 85-10.7 93.7 0 4.3.2 4.7 2 4.1 1.7-.6 2-.2 2 2.9 0 3.8.8 4.4 2.8 2.4 1-1 1.1.4.6 7-.7 8.1-.2 9.6 2.4 7 .9-.9 1.2-.4 1.2 2.5 0 3.9.8 4.5 2.9 2.4 1-1 1.2.3.8 6.8-.3 4.4-.3 6.5.1 4.6.4-1.9 1.3-3.6 2-3.9.9-.3 1.2 1.4 1.2 6.2 0 6.6.6 7.6 2.7 5.5.9-.9 1.4-.5 1.8 1.4.4 1.4.4 3.1 0 3.6-.8 1.5.8 1.4 2.2 0 .9-.9 1.4-.5 1.8 1.4.4 1.4.4 3.1 0 3.6-.3.6-.2 1.1.4 1.1.5 0 1.3-.5 1.7-1.2 1.3-2 2.4 3 1.3 5.9-.8 2.3-.8 2.4.6 1.3 2.3-1.9 2.9-.6 3 5.8 0 4.4.3 5.7 1.5 5.7 2 0 3 1.5 3 4.4 0 1.9.3 2.1 1.4 1.2 1.5-1.3 2.6.4 2.6 4.1 0 1.6.3 1.8 1.3.9 1.8-1.4 2.7-.4 2.7 3.2 0 2.3.3 2.7 1.3 1.8 1.8-1.4 2.7-.4 2.7 3.2 0 2.3.3 2.7 1.3 1.8 1.8-1.4 2.7-.4 2.7 3.2 0 2.3.3 2.7 1.3 1.8 1.8-1.4 2.7-.4 2.7 3.2 0 2.4.3 2.7 1.4 1.8 1.5-1.3 2.6.4 2.6 4.1 0 1.6.3 1.8 1.4.9 1.5-1.3 2.6.4 2.6 4.1 0 1.7.3 1.8 1.5.8s1.5-.7 2 1.3c.4 1.4.1 3.6-.5 4.9-1 1.9-1 2.1.1 1 2.4-2.2 2.9-1.3 2.9 5.8 0 7 .5 8.1 2.9 5.7 1-1 1.2.3.7 6.8-.5 7.4-.3 7.7 1 1.7.2-1.2.9-2.2 1.5-2.2.8 0 1 3.5.6 11.2-.3 6.2-.3 9.8.1 8 .4-1.8 1.2-3.3 1.7-3.2 1.1 0 1.1 2.1.3 18-.3 5.8-.4 8.8-.1 6.7.3-2.3.9-3.7 1.9-3.7 1.7 0 1.7 1.2-.1 17.5-2 17.5-2 23.6 0 22.8 1.4-.5 1.5.9.9 11.6-.7 12-.3 13.6 2.5 10.8 1-1 1.1-.1.6 4.6-.6 5-.5 5.7.9 5.1 1.2-.5 1.6 0 1.6 1.9s-1.7 3.8-6.7 7.9c-10.9 8.8-14 9.9-12.9 4.6.6-2.9.5-3-1.1-1.6-6.4 5.4-22.2 17.7-24.1 18.7-1.8 1-2.3.9-2.8-.4-.3-.8-.4-2.2 0-3 .3-.8.3-1.5 0-1.5s-4.8 3.4-10.1 7.5c-5.2 4.1-10 7.5-10.7 7.5-2.1 0-2.5-1.1-1.6-3.6.5-1.3.8-2.4.6-2.4-.2 0-4.3 3.1-9.1 7-9.8 7.8-13.1 8.9-12.1 3.9l.6-3.1-4.2 3.4c-2.3 1.8-6 4.8-8.2 6.5-2.3 1.8-4.9 3.3-6 3.3-1.5 0-1.7-.5-1.2-3.1l.6-3-6 4.8c-11 8.7-13.7 9.7-12.7 4.7.2-1.3.2-2.4-.1-2.4-.2 0-3.8 2.7-7.9 6-8.6 6.9-10.7 7.5-10.1 3 .3-1.7.3-3 .1-3-.2 0-3.8 2.7-7.9 6-4.2 3.4-8.1 5.9-8.8 5.7-.6-.2-1-1.6-.9-3.1.1-1.4 0-2.6-.1-2.6-.2 0-3.4 2.5-7.2 5.5-8.1 6.4-11 7.1-10 2.4l.6-3.1-4.8 3.8c-2.6 2.1-6 4.9-7.6 6.2-2.5 2-3.1 2.1-4.3.9-1.2-1.2-1.3-1.9-.2-3.8 1.2-2.3 1.1-2.3-.9-.9-1.1.8-4.8 3.6-8.2 6.2-3.4 2.7-6.7 4.8-7.2 4.8-.6 0-.8-1.5-.6-3.4l.4-3.4-7 5.4c-8 6.2-10 6.8-9.4 2.5.5-3.5.7-3.5-8 3.1-3.5 2.7-6.8 4.5-7.4 4.2-.5-.4-.7-2-.4-3.6.6-2.8.5-2.8-6.5 2.7-3.9 3-7.6 5.5-8.1 5.5-.6 0-.8-1.5-.6-3.5.3-2.2 0-3.1-.7-2.6-.5.4-3.4 2.7-6.3 4.9-6.5 5.1-8.6 5.4-8 1.3.5-3.4.4-3.4-6.5 2.1-2.7 2.1-5.3 3.8-5.9 3.8-.6 0-.8-1.5-.6-3.5.4-3.7.7-3.8-5.5 1.2-3.8 3-4.7 2.9-4.7-.7 0-1.7-.3-3-.6-3s-2.3 1.4-4.4 3.1c-4.7 3.8-7.4 3.4-6.4-.8.7-2.7.6-2.7-4.6 1.5-2.9 2.3-5.7 4.2-6.1 4.2-.5 0-.9-1.4-.9-3 0-3.7-.6-3.7-5 0-1.9 1.7-4.3 3-5.3 3-1.6 0-1.9-.5-1.3-3.1l.6-3.1-5.2 4.2c-5.7 4.5-7.3 4.6-7.3.7.1-1.5-.1-2.7-.3-2.7-.2 0-2.6 1.8-5.5 3.9-5.6 4.3-7.1 4.3-6.5 0 .3-1.9.1-2.6-.6-2.1-.6.5-3 2.3-5.3 4.1-4.8 3.7-6.8 3.3-5.9-1.1l.6-2.9-5.8 4.5c-3.2 2.6-6.1 4.6-6.5 4.6-.4 0-.7-1.4-.7-3 0-1.7-.3-3-.6-3s-2.6 1.6-5.1 3.5c-5.8 4.4-7.7 4.5-7.1.6.5-3.4.2-3.3-5.9 1.7-4.6 3.7-6.7 3.4-6.1-.8l.4-2.8-5.7 4.5c-6 4.7-8.4 4.9-7.6.7.2-1.3.2-2.4 0-2.4s-2.8 1.8-5.8 4.1c-5.7 4.3-8.1 4.4-7.1.3.4-1.3.4-2.4.1-2.4-.3 0-2.8 1.8-5.6 4s-5.5 4-6 4c-1.7 0-2.1-2.8-.8-5.2 1.4-2.6 1.6-2.7-6.3 3.6-5.1 4.1-7.2 4-6.6-.4l.4-2.8-5.6 4.4c-3.1 2.4-6.2 4.4-6.8 4.4-.7 0-1.2-1.4-1.2-3.1v-3l-6.1 4.7c-4.8 3.7-6.3 4.4-7 3.3-.4-.8-.5-2.5-.2-3.8.6-2.2 0-2-5.4 2.2-7 5.6-8.7 5.9-8.1 1.7.3-1.7.2-3 0-3-.3 0-2.3 1.5-4.6 3.3-2.3 1.9-5.1 3.9-6.3 4.6-2.2 1.1-2.3 1-2.3-1.9 0-1.6-.3-3-.6-3s-2.9 1.8-5.7 4c-5.6 4.5-7.3 4.6-7 .6.1-1.4-.1-2.6-.4-2.6-.3 0-2.7 1.8-5.3 4-5.9 4.9-8.4 5.3-7.8 1.1.5-3.4.2-3.4-6.3 2.1-5.9 4.8-8.4 5.1-7.5.8.7-3.6.3-3.5-6.7 2.3-5.3 4.4-8.4 4.5-7.3.1.8-3 .4-2.9-6.7 2.8-2.7 2.1-5.3 3.8-5.8 3.8-1.7 0-2.1-2.8-.8-5.2 1.2-2.2 1.1-2.2-2.2.4-8.3 6.6-11 8.1-12.1 7-.9-.9-.8-1.8.1-3.8l1.2-2.7-3.3 2.6c-8.4 6.7-10.9 8.1-11.8 6.7-.4-.7-.4-2.4.1-3.8l1-2.5-3.8 2.8c-2.1 1.6-5.1 3.9-6.6 5.2-4 3.3-6 3-5.5-.6.5-3.4.2-3.3-5.7 1.4-7.5 6-10.6 6.5-9 1.5.9-2.9 0-2.5-6.4 2.5-3.1 2.5-6.3 4.5-6.9 4.5-.7 0-1.2-1.4-1.2-3v-3.1l-6.6 5.1c-3.6 2.8-7 4.7-7.6 4.4-.5-.4-.7-2-.4-3.6.6-3 .6-2.9-5.9 2.2-7.1 5.7-10.1 6.1-8.9 1.3.8-3.2 1.2-3.4-7.8 4-5.2 4.2-7.2 4.1-6.6-.4.3-1.9.1-2.6-.6-2-.6.4-3.7 2.8-6.9 5.4-6.9 5.5-10.7 5.3-7.6-.5 1.4-2.6.2-2-6.1 3.2-6.5 5.4-8.9 6.5-9.6 4.5-.3-.8-.4-2.2 0-3 .8-2.3 0-1.9-7 3.5-3.6 2.7-7 5-7.6 5-.6 0-.9-1.4-.6-3.4l.4-3.4-7 5.4c-8 6.2-10 6.8-9.4 2.5.5-3.5.7-3.5-8 3.1-3.5 2.7-6.8 4.5-7.4 4.2-.5-.4-.7-2-.4-3.6l.6-3-4.8 3.8c-2.6 2.1-6 4.8-7.5 6.1-3.4 2.8-5 2.1-4.5-1.8.3-1.6.4-2.9.3-2.9-.1 0-3.3 2.5-7.1 5.5-8.1 6.4-11 7.1-10 2.4l.6-3-6.1 4.7c-3.3 2.7-6.2 5.2-6.5 5.6-.3.4-1.4.8-2.6.8-1.7 0-2-.5-1.6-3 .5-3.4 1.2-3.8-9.2 4.2-3.4 2.7-6.6 4.5-7.2 4.2-.5-.4-.8-1.9-.6-3.5l.4-2.9-4.5 3.7c-2.5 2-5.9 4.7-7.4 6-4.1 3.3-6 3-5.5-.7.3-1.7.3-3 .1-3-.2 0-3.7 2.7-7.9 6-4.1 3.3-7.9 6-8.4 6-1.4 0-1.8-2.3-.8-4.9.8-2.4.8-2.4-2.9.5-2.1 1.5-6 4.5-8.6 6.6-2.7 2.1-5.3 3.8-5.7 3.8-1.4 0-1.8-2.3-.9-4.8.7-1.7-1.2-.7-7.7 4.3-4.7 3.6-8.9 6.5-9.4 6.5-1.6 0-2-1.8-1-4.5l1-2.7-4.2 3.4c-2.3 1.8-6 4.8-8.2 6.5-2.3 1.8-4.9 3.3-6 3.3-1.5 0-1.7-.5-1.2-3.1l.6-3.1-4.2 3.4c-2.3 1.8-6 4.8-8.2 6.5-2.3 1.8-4.9 3.3-6 3.3-1.5 0-1.7-.5-1.2-3.1l.6-3.1-4.2 3.4c-2.3 1.8-6 4.8-8.2 6.5-2.3 1.8-4.9 3.3-6 3.3-1.5 0-1.7-.5-1.2-3.1l.6-3.1-4.3 3.4c-8.7 7.2-13.9 10.8-15.3 10.8-1.7 0-1.8-2.3-.3-5.1.6-1.1-3.4 1.4-8.9 5.6-10 7.7-12.8 8.6-11.9 3.9.5-2.9-.3-2.5-10.3 5.5-8.7 7-11.6 7.8-10.6 2.9.6-2.9.5-3-1.1-1.6-6.7 5.7-17.7 13.8-18.8 13.8-2.1 0-2.7-1.7-1.4-4.1 1.5-2.8.7-2.3-10.7 6.8-10.1 8.1-12.9 9.1-12.2 4.3.3-2 .1-2.7-.6-2.1-12.3 9.6-20.9 16.1-21.6 16.1-1.6 0-2-1.8-1-4.6 1-2.6 1-2.7-.7-1.3-5.1 4.4-17.1 13.8-19.5 15.3-3.8 2.5-6.1 1.5-4.8-2l1.1-2.7-3.8 2.9c-2.1 1.5-7.3 5.6-11.6 9.1-8.6 6.8-12.3 8.1-11.5 3.8.3-1.4.3-2.5 0-2.5-.2 0-5.4 4-11.6 8.9-13.5 10.7-15.4 11.8-16.3 9.5-.3-.9-.1-2.6.6-3.6 1.7-2.8.7-2.1-12.9 8.8-6.3 5-12.6 9.7-13.9 10.4-3 1.6-4.7.1-3.2-2.9.7-1.2.9-2.1.6-2.1-.3 0-7 5.2-14.8 11.5-7.9 6.2-15.6 11.9-17.1 12.5-2.8 1-2.8 1-2.4-2 .3-1.6.3-3 .1-3-.2 0-7.7 5.8-16.6 12.9-15.9 12.6-19.5 15.1-21.6 15.1-1.5 0-1.4-3.3.1-4.8 4.3-4.3-3.1 1.2-23.4 17.3-21.5 17.2-26.9 20.8-28.5 19.1-.3-.3-.1-1.8.6-3.3 1.2-2.6 1.2-2.7-.6-1.2-1 .9-36.4 29.2-78.8 63-91.2 72.7-93.1 74.2-91.6 74.7 4.1 1.4-2.6 8.6-22.7 24.7-8.3 6.6-14.6 12.1-14.1 12.3 1.8.7.9 3.8-2.2 7.5-1.7 2.1-7.5 7.3-12.9 11.7-7.7 6.2-9.7 8.4-9.3 9.9.9 3.3-2.8 8-12.5 15.8-7.4 6-9.2 7.8-8.7 9.4 1 3-2.7 7.8-10.9 14.4-4.5 3.5-7.1 6.2-6.4 6.6 1.4.9.3 4.8-2 7.4-.9 1.1-4.3 4.1-7.3 6.7-4.6 3.9-5.6 5.2-5.2 7.2.7 3.2-1.8 6.6-8.3 11.7-4.2 3.2-5.2 4.5-4.3 5.5 1.6 1.9-2.3 8.2-7.7 12.3-3.6 2.7-4.3 3.8-3.8 5.6.8 3.1-1.8 7.3-6.7 10.9-3.1 2.4-3.7 3.4-3.3 5.3.7 2.7-1.2 6-6.1 10.5-2.4 2.1-3.3 3.7-3 4.9.8 2.6-1.9 7.4-5.9 10.4-2.1 1.6-3.3 3.2-2.9 4.1 1 2.6-.7 6.2-4.5 9.8-3.1 3-3.8 4.2-3.4 6.5.3 2.2-.4 3.8-3.2 6.9-2.6 2.8-3.6 4.9-3.6 7.2s-.9 4.1-3.5 6.7c-2 2-3.4 4.2-3.1 5 .8 2-1.2 6.5-4.1 9-1.5 1.4-2.3 2.8-1.9 3.8.7 2-1 6.4-3.6 9.2-1.1 1.2-2.2 3.8-2.3 5.8-.1 2.3-1.1 4.6-2.8 6.3-1.8 1.8-2.7 3.9-2.7 5.9 0 1.9-1 4.4-2.6 6.3-1.6 1.8-2.8 4.5-2.9 6.6-.1 1.9-1 4.3-2.1 5.5-1 1.2-1.7 3.2-1.6 4.4.2 1.3-.6 3.7-1.8 5.3-1.1 1.5-2.3 4.8-2.5 7.2-.3 2.6-1.3 5.3-2.6 6.6-1.2 1.3-2.3 4-2.5 6-.2 2-.7 4.1-1.2 4.8-.5.6-1.2 3.1-1.5 5.6-.4 3-1.3 5-2.6 5.9-1.6 1-2.1 2.4-2.1 5.7 0 2.3-.4 4.6-1 4.9-.5.3-1 2.4-1 4.6 0 2.9-.7 4.7-2.4 6.4-2.2 2.2-2.5 3.5-4.1 15.9-.2 2.1-.9 4.4-1.5 5.1-.6.8-1 1.9-.9 2.7.4 3.2-.2 5.8-1.8 7.4-1.7 1.6-3.1 8.7-4.9 24.2-.4 2.9-1 5.5-1.5 5.8-.5.3-.9 2-.9 3.9 0 4.1-.9 6.5-2.4 6.5-1.4 0-3.8 17.7-11.1 84-6 54.3-6.3 58.5-4 57.6 2-.7 1.9.5-.6 24.7-1.1 10.9-1.8 21.1-1.6 22.5.3 2.1.4 1.9.6-.9 0-2.3.7-3.9 1.6-4.3 1.9-.7 1.9-.3-.1 19.5-.8 8.7-1.3 16.9-1.1 18.1.3 1.5.5 1 .6-1.3.1-2.4.7-3.9 1.7-4.3 1.5-.6 1.6.1 1 6.6-.3 3.9-.9 11.2-1.1 16.2-.5 8.6-.4 8.9.8 5.1 1.2-3.5 1.4-3.7 2-1.9.4 1.2.3 6.1-.3 11-1.3 11.5-1.3 17.7 0 16.9.6-.3 1-1.8 1-3.3 0-1.8.3-2.3 1.1-1.5.7.7.7 3.8 0 10.6-.6 5.3-1 11.6-1 13.9l.2 4.3.6-3.9c.3-2.2 1.2-4.1 1.9-4.4 1-.3 1.1 2.1.6 11.7-.6 11.2-.6 12.1 1 11.5 1.5-.6 1.6.4 1 11.7-.7 11.6-.6 12.3 1 11 2.3-1.9 2.5-1.4 1.5 4.9-.4 3-.8 8.4-.8 11.9-.1 5.6.1 6.2 1.4 5.1.9-.7 1.7-1.1 1.9-.9.1.2-.1 3.8-.5 7.9-.4 4.1-.7 9.3-.7 11.5l.1 4 .6-3.4c.3-1.9 1.2-3.6 1.9-3.9 1-.3 1.1 2.1.6 11.7-.6 11.2-.6 12.1 1 11.5 1.6-.6 1.6.3 1 11.1-.7 10.9-.6 11.8 1 11.2 1.6-.6 1.7.2 1 11.3-.7 11.9-.3 13.4 2.5 10.7 1.1-1 1.3-.9.8.6-.4 1-.9 6.8-1.2 13-.5 10.1-.4 10.8.8 7.2 2-6.2 2.8-2 1.7 8.8-.5 5.1-.9 10.8-.9 12.7l.2 3.5.6-3.3c.3-1.8 1.1-3.3 1.6-3.2.6 0 .9 4.3.6 11.5-.3 10.3-.2 11.5 1.3 10.9 1.4-.6 1.5.6.9 11.5-.6 11.1-.5 12.1 1 11.5 1.5-.6 1.6.5 1 11.7-.6 11.6-.5 12.3 1.1 11 1.5-1.3 1.6-.5 1 11.5-.7 12-.6 12.8 1 11.5 1.5-1.3 1.6-.5 1 11.5-.7 12.4-.7 12.8 1.1 11.4 1.7-1.4 1.8-1.2 1.2 6-1.2 13-1.6 24.6-.9 21.2.4-1.8 1.2-3.1 1.7-3 1.1.3 1.2 2.4.3 18.8-.4 6.3-.4 10.1-.1 8.5.2-1.7.9-3.5 1.5-4 .7-.7.8 4.2.3 15.5-.7 15.4-.6 16.4 1 15 1.5-1.3 1.6-.7 1 9.1-.6 8.7-.5 11.1.9 13.7 1.8 3.4 2.1 7.2.7 7.2-.6 0-.6 1.2-.2 2.7.4 1.6.6 4.8.4 7.2-.4 6.3 1.3 11.6 4.3 13.6 1.5.9 2.4 1.3 2.1.8-.3-.5-.2-1.5.4-2.3.6-1.1.9-.7.9 1.7 0 2.6.3 3 2 2.6 1.7-.4 2 0 2 2.5 0 2.2.4 2.9 1.8 2.8 1.5-.1 1.7.8 1.6 6.4-.1 3.6 0 5 .3 3.2.5-3.8 2.8-3.9 2.9-.1.3 10.2.3 10 2.4 8.9 1.8-1 2-.8 2 2.4 0 2.8.3 3.4 1.6 2.9 1.4-.5 1.5.3.9 7.3-.8 8-1.8 11.4-3.5 11.4-.7 0-1 154.7-1 430.7 0 397.9.1 430.6 1.6 429.1.9-.9 1.8-3.3 1.9-5.3.1-2 .9-4.4 1.8-5.3 1.6-1.5 1.7-1.1 1.7 5.3 0 3.9-.7 12.6-1.5 19.5-1.8 15.5-2 24.4-.3 23.4.8-.5.9 2.3.5 11.2-1.3 23-1.6 29.9-1.1 27.2.3-1.6 1-2.8 1.6-2.8.8 0 .9 3.2.5 10.4-1.3 20.7-1.5 24.1-1 21.3.2-1.5.9-2.7 1.5-2.7.7 0 .8 4.9.3 16-.6 14.3-.5 15.9.9 15.4 1.3-.5 1.4.8.9 11.5-.6 11.4-.5 12.1 1.2 11.5 1.6-.7 1.7-.3 1.1 4.2-1.6 12-1.8 17.1-.7 17.8.6.4 1.1 0 1.1-1.1 0-1 .5-2.5 1.1-3.3.8-1.1.9 1.1.5 8-.6 9.3.1 12.9 2.3 11.6.7-.5.9 2.9.7 11.1-.3 6.5-.2 10.1 0 8 .3-2 1-3.7 1.6-3.7.8 0 .9 2.9.4 9.4-.7 10.3-.3 12.8 2.1 11.9 1.4-.5 1.5.2.9 5.4-.8 6.9-.1 9.4 2.1 8.6 1.4-.5 1.5.2.9 5.4-.7 6.7-.1 9.4 2 8.6 1.2-.4 1.4.8 1.2 6.8-.3 7.3-.3 7.4 2.1 7.1 2.2-.3 2.3-.1 1.7 3-1.7 8.2-1.8 9.8-.7 9.8.6 0 1.1-1.3 1.1-2.9 0-1.7.4-3.2 1-3.6.5-.3 1 2.2 1.2 6.2.3 5.8.6 6.8 2.1 6.7 1.6-.2 1.7.6 1.5 7-.3 6.9-.2 7.1 2.1 6.8 2.1-.2 2.3.1 1.9 3.1-.3 2.6 0 3.4 1.2 3.3 1.2-.1 1.4 1.1 1.1 6.8l-.3 6.9 2.6-.7c2.4-.6 2.6-.4 2.6 2.4 0 2 .5 3 1.5 3 1.1 0 1.4 1.4 1.2 6.7-.2 6.5-.1 6.8 2.1 6.6 1.8-.2 2.2.2 2.2 2.8 0 2.6.3 2.9 2 2.4s2-.2 2 2.4c0 1.6-.5 3.3-1 3.6-.6.3-1 2.1-.9 3.8l.1 3.2 1.2-3.5c1.6-4.4 3.1-4.1 3.1.8.2 8.6.4 9.4 2.5 8.7 1.7-.5 2-.2 2 2.5s.3 3 2 2.5 2-.2 2 2.5.3 3 2 2.5 2-.2 2 2.5c0 2.4.4 3 1.8 2.8 1.2-.2 1.8.5 2 2.5.2 1.6.9 2.7 1.9 2.7 1.3 0 1.5.8.9 4.7-.5 3.7-.4 4.5.6 3.5 2-2 3.1-1.4 2.6 1.6-.4 2.7 1.3 5.7 2.6 4.5.9-1 .7.6-.3 2.6-.8 1.4-.6 1.7 1.2 1.7 1.5-.1 2.3.6 2.5 2.1.2 1.3.9 2.3 1.7 2.3 1.6 0 2.6 2.5 1.9 4.5-.4 1 .1 1.3 2.3 1.2 2.5-.2 2.8.1 2.5 2.5-.2 2.6-.1 2.7 2.2 1.9 3-1.2 3.7-.5 3 2.5-.7 2.5.5 3.1 2.3 1.3 1.8-1.8 3.5 0 2.8 2.9-.6 2.5-.6 2.5 2 .8 2.3-1.5 2.6-1.5 3.1-.1.4.8.4 2.4.1 3.5-.5 2.1.7 2.8 1.8 1 1.3-2.1 2.5-.8 2.5 2.7 0 2.9.3 3.4 1.2 2.5 1.9-1.9 2.8-1.4 2.8 1.8 0 2.5.4 2.9 2.3 2.7 1.8-.2 2.2.3 2.2 2.5-.1 2.8.9 3.6 2 1.8.3-.6 1.5-1 2.7-1 1.8 0 2 .4 1.4 3.1l-.6 3 2.9-2c3.9-2.8 4.1-2.7 4.1 1.5 0 3.1.2 3.5 1.5 2.4 2-1.7 3.8-.2 3.1 2.6-.6 2.4.7 3.3 1.9 1.4.3-.6 1.5-1 2.7-1 1.8 0 2 .4 1.4 3.1l-.6 3 2.9-2c3.9-2.8 4.1-2.7 4.1 1.6 0 2.9.3 3.4 1.2 2.5.7-.7 2.1-1.2 3.1-1.2 1.6 0 1.9.5 1.3 3l-.6 3.1 3.4-2.6c1.8-1.4 3.6-2.5 3.9-2.5.4 0 .7 1.6.7 3.6v3.5l2.6-2c3.7-2.9 4.7-2.6 4.2 1.3l-.4 3.4 2.8-1.9c3.3-2.4 5.2-1.6 4.5 1.7-.5 3-.3 3 3.7-.1 1.8-1.4 3.6-2.5 3.9-2.5.4 0 .7 1.6.7 3.6v3.6l3.1-2.6c1.7-1.4 3.4-2.6 3.9-2.6 1.2 0 2 2.8 1.4 4.5-.9 2.2.3 1.9 4.1-1.1 3.8-2.9 5.9-2.4 5.2 1.2-.2 1.3-.1 2.4.2 2.4.3 0 9.4-7.1 20.1-15.8 17.6-14.2 19.5-16 19.6-18.9.2-3.7 2.8-7.4 8.4-11.6 3.2-2.5 3.8-3.5 3.4-5.4-.7-2.7 1.2-6 6-10.4 2.4-2.1 3.4-3.9 3.4-5.8-.1-3.7 1.6-6.5 5.7-9.7 2.8-2.1 3.4-3.1 2.9-5-.7-2.7 1.6-6.8 5.2-9.7 1.3-1 2.1-2.4 1.7-3.2-.9-2.6.6-6.4 4-9.5 2.7-2.4 3.3-3.6 2.9-5.9-.3-2.1.4-3.7 2.9-6.6 2.4-2.7 3.3-4.6 3.1-6.5-.2-2 .6-3.9 3-6.5 2.3-2.7 3.2-4.6 3-6.5-.2-1.9.6-3.8 2.7-6.3 2-2.3 3.1-4.5 3.1-6.5 0-2.1 1.1-4.3 3.1-6.6 1.7-2 2.8-4 2.4-4.6-.9-1.4 1.4-7.1 3.4-8.6.8-.7 1.2-1.8.7-2.9-.4-1.1.4-3.5 2-6.3 1.5-2.5 2.9-6.1 3-8.1.2-2 1.4-4.5 2.9-6.1 1.7-1.8 2.5-3.7 2.5-6.1 0-2.5.8-4.3 2.5-5.9 1.6-1.5 2.5-3.4 2.5-5.5 0-1.7.8-4.2 1.7-5.5 1-1.4 1.8-3.9 1.9-5.6 0-1.8 1-4.4 2.2-5.9 1.3-1.6 2.2-4.2 2.2-6.1 0-2 .9-4.4 2.5-6.2 1.4-1.7 2.5-4.3 2.5-5.9 0-1.6.7-3.8 1.5-4.9.8-1 1.5-3.4 1.5-5.3 0-2 .9-4.4 2.5-6.3 1.7-2 2.5-4.2 2.5-6.7 0-2.4.7-4.4 1.9-5.5 1.1-1 1.7-2.5 1.4-3.6-.3-1.1.4-3.5 1.6-5.3 1.2-1.9 2.1-5 2.1-7 0-2.4.9-4.6 2.6-6.6 1.4-1.7 2.3-3.5 1.9-4-.3-.6.3-2.9 1.5-5.3 1.1-2.3 2-5.8 2-7.8 0-2.6.7-4.3 2.4-5.9 1.5-1.4 2.2-3 1.9-4.1-.3-1 .2-3.3 1.1-5.1.9-1.8 1.6-4.9 1.6-6.9 0-2.6.7-4.3 2.4-5.9 1.5-1.4 2.2-3 1.9-4.1-.3-1 .2-3.3 1.1-5.1.9-1.8 1.6-4.9 1.6-6.9 0-2.5.7-4.3 2.3-5.8 1.6-1.5 2.4-3.5 2.5-5.8.1-1.9.4-3.9.7-4.5.4-.5.8-2.8 1-5.1.3-2.2 1.1-4.9 2-5.8.8-.9 1.5-2.6 1.5-3.7s.7-3.4 1.5-4.9c.8-1.6 1.5-4.5 1.5-6.5 0-1.9.7-4.4 1.5-5.5.8-1 1.5-3.3 1.5-5.1 0-1.7.8-3.9 1.7-4.9.9-.9 2.1-3.8 2.5-6.5.4-2.7 1.2-7.2 1.6-10.1.6-3.2 1.6-5.7 2.9-6.8 1.6-1.2 2.2-3.3 2.7-9.2.4-4.1 1.4-8.8 2.2-10.3.8-1.5 1.4-3.9 1.4-5.3s.8-3.4 1.7-4.4c1.6-1.8 2.8-7.1 4-17 .2-2.6 1.1-5.2 1.9-5.9.8-.6 1.4-2.3 1.4-3.8s.5-3.2 1.2-3.9c.7-.7 1.5-3.6 2-6.4 1.9-13.1 2.6-15.9 4.5-18 2-2.2 3.5-9.5 5-24 .3-2.6 1.1-5.2 1.9-5.9.8-.6 1.4-2.1 1.4-3.3 0-1.2.5-2.7 1.1-3.3 1-1 2.2-7.2 3.6-18.3.3-2.5.9-4.9 1.4-5.4.5-.6.9-2.2.9-3.7 0-1.4.8-3.7 1.9-5 1-1.3 2.1-4.4 2.4-6.9 2.9-20.2 3.6-24.2 4.7-25.5.7-.8 1.6-1.3 2-1 .4.2 1.2-3.9 1.9-9.3.7-5.3 1.5-11.5 1.7-13.7.3-2.2.8-4.7 1.1-5.5.3-.8.7-3.2.9-5.3.2-3.8 2-7.1 3.3-6.2.4.2 1.2-3.9 1.9-9.1.6-5.3 1.5-10.1 2.1-10.8.6-.7.8-1.5.5-1.9-1-1 .7-6.7 2.6-8.5 1-.9 2-3.5 2.3-5.7 1.4-10.4 2.7-14.8 4.7-16.2 1.4-1 2-2.5 2-5.1 0-2.1.8-4.9 1.7-6.2 1-1.4 1.6-3.5 1.5-4.8-.2-1.3.9-3.8 2.7-6.1 1.8-2.3 3.1-5.1 3.1-6.7 0-1.7 1.2-4.3 2.8-6.2 2.1-2.4 2.7-4.1 2.4-6.1-.3-2.2.4-3.8 3.2-6.9 2.5-2.8 3.6-4.9 3.6-7.1 0-2.4 1-4.2 4.5-7.6 3-2.9 4.3-4.9 3.9-5.9-1.1-2.8 1.5-7.1 6.7-11.1 3.1-2.3 4.6-4.1 3.9-4.5-1.6-1-.3-5.4 2.4-8.2 1.2-1.3 4.6-4.2 7.4-6.5 3.1-2.4 4.8-4.4 4.2-4.8-1.3-.8-.4-4.2 2-7.2.9-1.1 6.8-6.3 13.1-11.4 14.8-11.9 14.8-11.9 12.1-11.2-3 .7-2.8-.5 1-5.6 2.8-3.9 36.4-31.7 46.3-38.4 4.4-3 8.1-3.6 7.1-1.2-.3.8-.9 2.2-1.3 3.1-.3.9 8.2-5.3 18.9-13.9 24.4-19.4 26.6-20.7 25.4-14.7-.6 3.4-.8 3.5 20.9-14 11-8.9 14.2-10.1 13.1-4.9l-.6 3.1 3.8-3c2-1.7 9.1-7.3 15.7-12.6s13.4-10.2 15-11c3.9-1.9 5.3-.5 3.1 2.9-1.3 2-1.4 2.5-.3 1.8 4.4-2.5 77.6-61.8 76.8-62.1-3.5-1.2 1.1-7.8 10.8-15.7 6.2-5 6.7-5.7 6.3-8.6-.4-2.7.2-3.7 5.4-8.6 4.8-4.6 5.8-6.1 5.6-8.4-.3-2.2.7-3.9 4.3-7.8 2.6-2.8 4.4-5.4 4.1-6-.9-1.4 1.2-6.3 4.1-9.3 1.4-1.4 2.2-3.1 1.9-3.7-.9-1.4 1.7-7.2 4.2-9.4 1.2-1.1 1.8-2.6 1.5-3.7-.3-1.1.4-3.6 1.6-5.5 1.1-2 2.1-5.2 2.1-7.1 0-2.1.8-4.2 2.1-5.5 1.2-1.2 2.2-3.8 2.5-6.2.2-2.2.8-4.5 1.4-5.1.5-.5 1-2.9 1-5.2 0-2.4.4-4.6 1-4.9.5-.3 1-2.1 1-4 0-2 .6-3.8 1.5-4.2 1.1-.7 2.1-5.1 3.5-15.8 1.1-8.3 2.7-19.8 3.5-25.6.8-5.8 2.4-21.1 3.5-34 1.2-12.9 2.5-25.2 3-27.4 1.3-6 2.3-21.2 1.5-22.5-.5-.8-1.1-.7-2.3.2-1.4 1.2-1.5.8-.9-2.9 1-6.3 3.7-32 3.7-35.4 0-1.6-.4-2.9-1-2.9-.5 0-1 1.3-1 3 0 1.6-.5 3-1.1 3-.9 0-1-2.1-.5-7.2.3-3.9.8-7.3 1-7.5.2-.2 3-.6 6.2-.9 9.8-.9 23-4.1 31.9-7.8l8.5-3.4v2.9c0 3.5.3 3.6 4.4.4 4.4-3.4 5.9-3.2 5.4.5-.3 1.6-.2 3 .1 3 .3-.1 4.2-3 8.6-6.5 4.4-3.6 8.5-6.3 9-6.1.6.1 1 1.5 1 2.9-.1 1.5.1 2.7.3 2.7.2 0 4.1-3 8.8-6.6 8.4-6.5 11-7.3 10.1-2.8-.2 1.3-.2 2.4 0 2.4.3 0 4.5-3.1 9.3-7 4.8-3.9 9.3-7 9.9-7 1.8 0 2.4 2.6 1 5.2-1.1 2.2-1.1 2.2.7.7 16.4-13.9 24.6-17.8 20.3-9.7-1.4 2.7-.7 2.2 10.2-6.4 9.7-7.7 12.5-8.6 11.5-3.7l-.6 3.1 6.8-5.3c3.7-2.9 8.3-6.6 10.2-8.1 1.9-1.5 4.3-2.8 5.4-2.8 1.5 0 1.7.5 1.2 3.1l-.6 3.1 3.8-3c2-1.7 6.9-5.5 10.7-8.6 8.1-6.5 11.1-7.2 10.1-2.5l-.6 3 6.1-4.8c12.6-10 17.1-13.3 18.5-13.3 1.7 0 1.8 2.3.3 5.3-1.1 2.1-1.1 2.1.7.6 10.6-8.9 22.4-17.8 24.3-18.4 2.2-.7 2.3-.5 1.9 2.4-.2 1.7-.3 3.1-.1 3.1.2 0 6-4.5 12.8-10 13.9-11 19.3-13.1 15.4-5.8-1.5 2.8-.7 2.3 13.2-8.8 15.9-12.6 18.7-13.9 17.5-8.4-.5 3-.3 2.8 8.7-4.3 18.7-14.8 21.2-16.7 23-16.7 2 0 2.3 3 .5 4.8-.7.7-.9 1.2-.5 1.2.3 0 7.7-5.7 16.4-12.6 19.7-15.8 25.7-18.9 22.5-11.8-1.6 3.3-2 3.6 17.8-12.1 20.8-16.5 23-18.1 25.8-19 2.7-.8 3.1 1.9.5 4.7-.9 1-1.4 1.8-1.1 1.8.3 0 13.3-10.1 28.9-22.6 27.5-21.8 37.7-29 40.1-28.2.6.2-.4 2.1-2.3 4.3-2.2 2.4-2.7 3.4-1.4 2.7 2.2-1.2 144.2-114.4 146.5-116.9 1.3-1.4 1.3-1.4-.7-.8-7.4 2.2 4.6-10 29.7-30.1 15.8-12.6 20.6-17 19.5-17.7-1.3-.7-1.3-1.1-.1-3.5 1.9-3.6 6.7-8 21.5-19.8 6.8-5.4 11.8-10 11.2-10.2-1.9-.6-1.2-3.6 1.8-7.2 1.6-1.9 7.4-7.1 13-11.5 5.5-4.4 9.6-8.2 9.1-8.3-1.8-.6-1-4 1.6-7.2 1.4-1.7 6-5.8 10-9.1 5.7-4.7 7.3-6.5 6.9-7.9-1-3.3 2.2-7.6 10.8-14.5 7.2-5.6 8.3-6.9 7.9-9-.6-3.5 1.7-6.5 10.8-14.1 5.7-4.7 7.8-7 7.1-7.8-1.8-2.2 2.1-7.7 10.3-14.3 7-5.7 8.1-6.9 7.8-9.3-.4-3.4 3.2-7.8 12.3-15 5.2-4.1 6.2-5.4 5.8-7.4-.7-3.5 2.3-7.3 12-15 7.1-5.6 8.3-7 8-9-.7-3.7 1.1-6 11-14.2 8-6.6 9.1-8 8.9-10.4-.4-3.5 2.9-7.3 13.7-16 4.5-3.6 7.7-6.6 7.1-6.8-1.9-.7-1-4.2 2.1-7.7 1.7-1.9 7-6.6 11.6-10.3 5.6-4.4 8-6.8 6.9-7-2-.4-2-.6-.2-4 1.7-3.2 6.6-7.9 16.4-15.7 5-4 6.9-6.1 6.3-6.9-2-2.4 2.3-7.8 13.1-16.7 6.1-4.9 10.5-8.9 9.9-8.9-1.8 0-1.2-3.4 1.2-6.7 1.3-1.7 7.2-7.1 13.1-11.8 7.7-6.2 10.4-9 9.5-9.6-2.9-1.8 1.8-7.6 14.1-17.5 9.4-7.5 11.9-10.1 11.5-11.5-1.1-3.5 2.6-7.9 15.1-18 9.1-7.3 12.2-10.4 11.3-11-2.9-1.7 2.3-7.9 15.1-18.2 6.9-5.5 13.2-10.6 14-11.4 1.3-1.2 1.3-1.3-.2-.7-2.7 1-2.3-2.3.8-6.3 1.4-1.9 9.1-8.7 17.2-15.1 9.5-7.6 14-11.8 12.9-12-.9-.2-1.7-.7-1.7-1.1 0-2.7 7.8-10.4 22-21.7 10-7.9 15.6-13 14.6-13.2-.9-.2-1.6-.7-1.6-1.1 0-2.8 8.6-11.1 25.5-24.6 18.7-15.1 23.2-19 18.6-16.6-1.7 1-2.1.9-2.1-.4 0-3.2 11-13.1 41.7-37.7 17.2-13.7 31.3-25.2 31.3-25.4 0-.3-.9 0-2.1.6-1.1.6-2.5.9-3.2.7-1.8-.6 10-11.8 25.3-24.1 17.3-13.8 25.2-18.1 20.5-11-2.3 3.6-1.7 3.2 17.6-12.2 9.1-7.2 17.8-13.9 19.2-14.8 3-2 4.2-.8 3.2 3.1-.5 2.3-.2 2.2 5.3-2.1 3.2-2.5 6.4-4.6 7-4.6.7 0 1.2 1.4 1.2 3.1v3l2.8-2.1 2.7-2.2.5 3.6c.4 2.9.8 3.4 2 2.6.8-.5 2.3-1 3.4-1 1.5 0 1.7.5 1.2 3.1l-.6 3.1 3.2-2.7c2.7-2.3 3.2-2.5 4-1.1.5.9.6 2.6.3 3.7-.6 1.8-.4 1.9 1.2 1 1.1-.5 2.5-1.7 3.3-2.5 2-2.5 3.8-1.9 4.2 1.6l.3 3.1 3.1-2.6c4.1-3.5 5.2-3.4 5.6.5l.3 3.1 3.1-2.6c4.1-3.5 5.2-3.4 5.6.4l.3 3.1 3.9-3.1c4.3-3.5 6-3.2 5.4 1-.5 3-.2 3 4.8-.8 4.3-3.2 5.7-3 5.2.7-.3 1.6-.3 3-.1 3 .2 0 2.5-1.6 5-3.5s5-3.5 5.6-3.5c.5 0 .7 1.5.5 3.4l-.4 3.5 2.6-2c5.4-4.2 7-5 8-4.4.7.4.9 1.8.5 3.2-.6 2.7-.2 2.6 5.1-1.4 1.7-1.3 3.9-2.3 4.9-2.3 1.4 0 1.6.6 1.1 3.1l-.6 3.1 5.1-4.1c2.9-2.3 5.6-4.1 6.1-4.1.6 0 .8 1.6.6 3.5-.2 1.9-.3 3.5-.2 3.5 0 0 2.1-1.6 4.5-3.5 5.7-4.5 8.4-4.7 7.5-.4l-.6 3.1 5.1-4.1c6.6-5.3 7.5-5.3 7 .1-.3 2.5.3 2.3 6-2.2 5.5-4.4 7.3-4.3 6.7.1-.3 1.9-.1 2.6.6 2 .6-.4 3-2.2 5.3-4 4.7-3.7 6.8-3.4 5.9 1.1l-.6 2.9 5.7-4.6c6.1-5 7.9-5.2 7.6-1.1-.1 1.4 0 2.6.3 2.6.2 0 2.8-1.8 5.6-4 5.6-4.5 7.4-4.6 7.1-.6-.2 3-.1 2.9 6.5-2.1 5.6-4.2 7.6-4.3 7-.3l-.4 3 3-2.3c9-6.8 9.6-7.1 10.8-5.9.9.9.9 1.8-.1 3.8-1.4 3.1-1.7 3.2 6-2.9 5.8-4.7 8.3-4.9 7.7-.7l-.5 3 3.1-2.5c7.9-6.3 10.7-7.8 11.8-6.7.9.9.8 1.8-.1 3.8-1 2.2-1 2.6.1 1.7.7-.5 3.7-2.9 6.6-5.1 6.5-5.1 8.6-5.4 8-1.2-.3 1.6-.4 3-.3 3 .1 0 3-2.2 6.6-5 7.5-5.9 9.3-6.3 8.7-2-.3 1.6-.3 3-.1 3 .2 0 3.2-2.3 6.6-5 3.4-2.8 6.7-5 7.4-5 .8 0 1.3 1.3 1.3 3.1v3l7.1-5.5c8.2-6.5 10.3-7 9.7-2.6-.3 1.6-.4 3-.3 3 .1 0 3.3-2.5 7.1-5.5 8.1-6.4 11-7.1 10-2.4-.6 3-.5 3 7.8-3.5 10.3-8 11.3-8.2 10.6-2.1-.1 1.5.1 1.7 1.2.9.7-.6 4.8-3.9 9.1-7.3 9.5-7.4 14-8.2 10.5-1.8-1 1.9-.6 1.8 2.8-.7 2.1-1.7 7.1-5.5 10.9-8.6 10.9-8.8 14.2-9.9 12.9-4.2-.7 2.6-.6 2.6 1.2 1.1 6.3-5.4 72.9-58.1 74.4-58.9 2.4-1.3 3.4.2 2.5 3.7-.7 2.8-1.8 3.6 11.9-7.4 5.1-4.1 6.6-4.2 6.6-.2v3.1l6.5-5.2c7.1-5.7 10.2-6.1 9-1.3-.7 3-1.1 3.1 6.7-3.1 5.5-4.4 8.5-4.3 7.3.1-.7 2.9-1.1 3.1 6.6-3 5.8-4.7 7.2-4.7 6.7-.2l-.4 3.4 4.1-3.3c6.1-5 8.4-6 9.1-4.1.3.8.4 2.2 0 3-.8 2.3.3 1.8 5.1-2.1 4.9-4 7.8-4 7.1.1-.6 2.8-.2 2.7 5.9-2.3 4.8-3.8 6.8-3.5 5.9 1l-.6 3 4.4-3.6c5.6-4.6 8-4.8 7.4-.6-.3 1.6-.4 3-.3 3 .1 0 2.6-1.8 5.5-4 4.5-3.4 5.5-3.8 6.3-2.5.4.8.5 2.5.1 3.8-.8 2.4-.9 2.5 5.9-3 3.9-3.2 5-2.9 4.5 1.1l-.4 3.5 4.7-3.5c5.8-4.3 7.3-4.3 6.7-.4-.3 1.6-.2 3 0 3 .3 0 2.5-1.6 4.8-3.6 4.9-4 6.9-3.7 6 .8-.7 3.3-1 3.4 5.7-1.9 3.4-2.8 5-2.1 4.5 1.8-.4 2.8-.4 2.8 1.6 1.4 1.2-.8 3.1-2.2 4.3-3.1 2.9-2.1 5.7-1.1 4.8 1.6-.8 2.7-.2 2.5 4.7-1 5.3-3.8 6.1-3.8 5.6.5l-.4 3.4 4.2-3.4c5.4-4.5 6.7-4.5 6.2 0-.4 3.7-.7 3.8 5.6-1.3 2.6-2.1 3-2.2 3.8-.8.5.9.6 2.5.3 3.6-.8 2.6-.5 2.5 4-1 2.1-1.7 4.2-3 4.6-3 .5 0 .9 1.3.9 3 0 3.7.4 3.7 4.2.5 3.6-3.1 5.3-2.8 5.3.8-.1 3.3 0 3.3 3.7.2 4-3.4 6.4-2.9 6 1l-.4 3 2.4-2.1c2.2-2.1 6.1-4.4 7.2-4.4.3 0 .6 1.4.6 3v3.1l2.9-2.2c3.8-2.8 6.4-2 5.5 1.7l-.7 2.7 3.6-2.7c4-3.1 6.1-2.6 5.4 1-.5 3-.3 3 3.7-.1 4.2-3.2 4.6-3.1 4.6.5s.3 3.7 4.4.5c3.6-2.7 4.6-2.4 4.6 1.2 0 2.9.4 2.9 4.6-.3 2.9-2.3 3.5-2.4 4-1 .3.9.4 2.5.1 3.6-.6 2.2-.1 2 5-1.8 2.9-2.1 3.4-2.2 3.9-.8.3.9.4 2.5.1 3.6-.6 2.2-.1 2 5-1.8 2.9-2.1 3.4-2.2 3.9-.8.3.9.4 2.5.1 3.6-.7 2.7.2 2.5 4.2-1 3.9-3.4 5.5-3 4.9 1.1-.6 3.6-.2 3.6 4.2-.1 1.9-1.7 3.8-3 4.2-3 .4 0 .8 1.6.8 3.5v3.6l4.1-3.3c3.1-2.5 4.2-2.9 4.8-1.9.5.7.6 2.2.4 3.2-.7 2.5.2 2.4 4.2-.7 3.8-2.9 5.9-2.4 5.2 1.2-.5 3-.3 3 3.7-.1 4.7-3.5 7-3.4 6.3.5l-.6 3 4.1-3c5.5-4 7.2-4 6.4.1-.7 3.5-1 3.6 5.7-1.8 3.4-2.8 5-2.1 4.5 1.8-.4 2.8-.4 2.8 1.6 1.4 1.2-.8 3.1-2.2 4.3-3.1 2.8-2 4.6-.9 3.9 2.2-.8 3.1.1 3 4.4-.6 4.7-4.1 6.3-3.9 5.8.4l-.4 3.4 4.9-3.9c2.7-2.1 5.3-3.9 5.8-3.9.4 0 .9 1.4 1.1 3.1l.3 3.1 4.6-3.6c2.6-1.9 4.9-3.2 5.3-2.9.3.4.6 1.9.6 3.5v2.9l5.6-4.2c4.5-3.5 5.7-4 6.5-2.8.5.8.6 2.2.3 3.3-.7 2.2.2 1.8 5.7-2.6 5-3.8 7.3-3.7 6.7.2l-.5 3 3.1-2.5c7.9-6.3 10.7-7.8 11.8-6.7.9.9.8 1.8-.1 3.8-1 2.2-1 2.6.1 1.7.7-.5 4.5-3.5 8.4-6.6 8.3-6.6 11-7.3 10-2.6-.5 2.4-.3 2.9.7 2.2.6-.6 6.6-5.3 13.3-10.6 11-8.8 12-9.9 11.6-12.5-.5-3.9 2.3-7.1 15.9-17.6 12.6-9.8 17.5-11.3 13.7-4.3-1 1.9-.6 1.8 2.8-.7 2.1-1.7 7.1-5.6 11.1-8.8 8.2-6.7 10.8-7.4 10.1-2.8l-.4 3 3.5-2.7c2-1.5 5.7-4.4 8.2-6.5 5.8-4.7 8.3-5 7.7-.9-.5 3.5-.7 3.6 9-4.1 4-3.2 7.8-5.8 8.3-5.8 1.6 0 2.1 2.7.9 5.1l-1.2 2.2 2.8-2.1c1.6-1.2 5.5-4.2 8.7-6.7 3.3-2.5 6.3-4.2 6.9-3.9.5.4.7 2 .4 3.7-.6 2.8-.5 2.9 1.1 1.6 8-6.7 12.1-9.7 14.2-10.4 2.2-.7 2.3-.5 1.9 2.4-.2 1.7-.3 3.1-.1 3.1.2 0 3.5-2.5 7.2-5.5 7.9-6.4 10.6-7 9.9-2.5-.3 2-.1 2.7.6 2.2.6-.5 4.1-3.2 7.7-6 8.4-6.5 9.5-6.6 8.9-.8-.2 2.1-.6 2.3 11.3-6.9 3.3-2.5 6.3-4.2 6.9-3.9.5.4.7 2 .4 3.6l-.6 3 4.3-3.4c13.9-11.3 16.3-12.4 15.5-6.7-.4 2.5-.3 2.7 1.1 1.6 6.7-5.6 17-13.6 18.8-14.5 3.7-2 4.6-1.5 3.9 2-.6 2.9-.5 3 1.1 1.6 1-.8 8.7-7 17.1-13.7 12.6-10.1 15.2-12.6 14.7-14.2-.4-1.2.2-3.4 1.4-5.4 1.6-2.8 2.2-6.1 2.7-15.5.7-11.7.3-13.5-2.3-10.9-.9.9-1.4.5-1.8-1.4-.4-1.4-.4-3.1 0-3.8.5-.8.1-.9-1.5-.4-2.1.7-2.2.5-1.8-2.8.3-3.1.2-3.4-1.3-2.6-2.6 1.4-2.9 1.2-2.9-2.1 0-3.2-.9-3.7-2.7-1.9-.9.9-1.4.5-1.8-1.4-.4-1.4-.4-3.1 0-3.6.3-.6.2-1.1-.4-1.1-.5 0-1.3.4-1.6 1-1.3 2.1-2.5.8-2.5-2.7 0-2.9-.3-3.4-1.2-2.5-2 2-2.8 1.4-2.8-2.5 0-2.9-.3-3.4-1.2-2.5-2.1 2.1-3.8 1.3-3.8-1.9v-3l-3.5 2.7-3.5 2.6v-3.6c0-3.5-1.2-4.7-2.5-2.6s-2.5.8-2.5-2.7c0-2.9-.3-3.4-1.2-2.5-.7.7-2.1 1.2-3.1 1.2-1.6 0-1.9-.5-1.3-3l.6-3.1-3.5 2.7c-3 2.3-3.6 2.4-4.1 1-.3-.9-.4-2.5-.1-3.6.6-2.2-.3-2.6-2-.9-1.9 1.9-3.6-.1-2.9-3.3l.6-2.9-3.4 2.6c-4.2 3.2-4.6 3.1-4.6-.5 0-3.2-.9-3.7-2.8-1.8-1.8 1.8-3.3-.9-2.5-4.1l.6-2.5-2.8 2.2c-4 3.2-5.8 2.9-5.3-.8.4-2.9.4-3-1.8-1.5-3.2 2.1-3.4 2-3.4-2.1v-3.5l-3.5 2.7c-3 2.3-3.6 2.4-4.1 1-.3-.9-.4-2.6-.1-3.7.5-1.9.4-2-1.9-.4-3.2 2.1-4.8 1-4-2.7l.6-2.9-3.4 2.6c-4.2 3.2-4.6 3.1-4.6-.5 0-2.9-1.3-4-2.5-2-.3.5-1.3 1-2.2 1-1.1 0-1.4-.8-1.1-3.4l.4-3.4-3.7 2.9c-4 3.2-4.9 2.9-4.9-1.3v-2.9l-2.9 2c-3.9 2.8-4.4 2.7-3.9-1.3.4-3.6-.1-3.7-3.4-.8-2.4 2-4.1.5-3.4-3l.6-3-3.9 3.1c-4.2 3.4-5.1 3.2-5.1-1.1v-2.9l-3 2.1c-3.5 2.5-5.4 1.8-4.6-1.6.7-2.7-.5-3.2-2.4-.9-2.3 2.8-4.3 1.8-3.8-1.9l.4-3.4-3.7 2.9c-2 1.6-4 2.9-4.3 2.9-.3 0-.6-1.6-.6-3.6v-3.6l-3.6 2.7c-2.9 2.2-3.8 2.5-4.5 1.4-.4-.8-.5-2.5-.2-3.8l.6-2.4-3.5 2.6c-4.4 3.4-4.8 3.4-4.8-.3 0-3.3-1.1-3.8-3-1.5-2.3 2.8-4.3 1.8-3.8-1.9l.4-3.4-3.9 3c-3.2 2.5-4.1 2.9-4.8 1.7-.5-.8-.7-2.5-.4-3.8.6-2.3.5-2.3-3.3.7-4.3 3.5-5.2 3.3-5.2-1v-2.9l-3.5 2.6c-4 3.1-5.9 2.5-5.1-1.7l.6-3-3.9 3.1c-2.1 1.7-4.2 3.1-4.5 3.1-.3 0-.6-1.6-.6-3.6v-3.5l-3.3 2.5c-4.4 3.4-5.7 3.3-5.7-.5v-3l-3.5 2.6c-3.8 3-5.9 2.5-5.2-1.1.5-2.9.2-3-3-.4-3.8 3-5.6 2.6-5.1-1 .3-1.7.4-3 .3-3-.1 0-1.6 1.1-3.5 2.5-4.6 3.4-6.3 3.3-5.8-.5.3-1.7.4-3 .3-3-.1 0-1.6 1.1-3.5 2.5-4.6 3.4-6.3 3.3-5.8-.5.5-3.6.4-3.7-3.4-.5-4.1 3.5-6.1 3.3-5.6-.5.5-3.3-.3-3.8-2.3-1.4-.7.8-2.5 2.2-4 2.9-2.3 1.3-2.8 1.3-3.3 0-.3-.8-.3-2.2 0-3 .9-2.1-.3-1.9-4 1-4.4 3.4-5.9 3.2-5.4-.5.3-1.7.3-3 0-3-.2 0-2.1 1.3-4.2 3-4.1 3.3-5 3.1-5-1.3v-2.9l-4 3.2c-4.5 3.6-6.5 3.2-5.6-1.2l.6-3-4.5 3.7c-4.6 3.7-5.1 3.6-5.7-1.3-.3-2.2-.3-2.2-4 .8-4.2 3.5-6.2 3.1-5.6-1.1l.4-2.8-2.8 2c-1.5 1.1-3 2.4-3.3 2.9-.8 1.3-4.2 1.3-5 0-.3-.5-.1-1.9.5-3 1.5-2.7 1-2.6-4.1 1.5-5.5 4.3-6.9 4.4-6.9.4v-3.1l-4 3.2c-4.1 3.3-6 3.3-6-.1 0-2.5-.9-2.4-5 .6-3.3 2.4-3.6 2.5-4.8.8-.7-1-1-2.4-.7-3.2.4-1.1 0-1-1.7.3-3.9 2.8-8 4.8-8.5 4.2-.3-.3.2-1.7 1.1-3.2 1-1.4 1.6-2.7 1.4-2.8-.3-.3-22.1-2.9-67.7-8.1-106.8-12.2-210.1-18.6-252.1-15.7-21.5 1.6-29.7 3.3-40.6 8.6-9.9 4.8-20.8 8.2-37.4 11.6-59.9 12.2-171.1 16.7-230.5 9.4-25.3-3.1-43.9-9-48.7-15.4-4.2-5.7-20.3-54.7-28.8-87.5-12.5-48.2-18.1-86.3-18.1-122.5 0-46.4 9.3-77 29.4-97.3 7.2-7.3 10-9.9 27.7-25.7 5.2-4.7 9.7-8.7 10-9 .7-.7 24.6-21.9 39-34.6 17.3-15.2 43.5-37.3 57.8-48.8 9.1-7.3 14.4-12.6 22-21.9 5.5-6.8 10.7-13.9 11.5-15.8.8-1.9 4-5.6 7.1-8.3 3.9-3.3 5.4-5.2 4.7-5.9-2-2 2.6-8.1 10.8-14.5 6.2-4.9 12.7-12 28.4-31 102.9-125 165.9-215.1 206.7-295.7 23.8-46.9 37.5-86.5 42.6-122.8 1.7-12.1 1.5-40.9-.4-47.7-.6-1.9-1.3-4.8-1.6-6.3-.4-1.5-1.1-2.5-1.6-2.2-.6.4-1-1-1-3.3 0-4.7-1.8-10.4-3.1-9.6-.5.3-.9-.8-.9-2.3 0-4.7-9.5-18.9-19-28.4-18.6-18.9-41.5-29.8-81.5-38.8-64.6-14.5-149.6-25.7-218-28.6-8.2-.4-16.1-.9-17.5-1.2-4.5-.9-131.9-1.1-152-.3zm-164.7 207.2c2.3.6 4.9 1.1 5.7 1.2.8.1 2.2.5 3 .8.8.4 3 1.1 4.9 1.7 7.7 2.5 16.8 8.7 25.4 17.3 4.8 4.8 8.7 9.3 8.7 9.9 0 .6.8 2.3 1.9 3.7 3.1 4.6 7.3 16.2 8.5 24.2 7 43.8-26 83-70 83.1-20.3 0-37.9-7.6-51.9-22.3-12.8-13.3-19.5-29.9-19.6-48.3-.2-28 15-52.9 39.6-64.9 6.4-3.2 15-5.9 21.5-6.8 5.2-.8 18.3-.5 22.3.4z"/><path d="M2402.4 281.5c-1.9 1.4-1.8 1.4.4 1.5 1.3 0 2.2-.6 2.2-1.5 0-1.9-.1-1.9-2.6 0zM2411.4 282.5c-1.9 1.4-1.8 1.4.4 1.5 1.3 0 2.2-.6 2.2-1.5 0-1.9-.1-1.9-2.6 0zM2420.4 283.5c-1.9 1.4-1.8 1.4.4 1.5 1.3 0 2.2-.6 2.2-1.5 0-1.9-.1-1.9-2.6 0zM2430 284c-2.4 1.9-2.4 2-.4 2 1.2 0 2.5-.7 2.8-1.6.9-2.4.4-2.5-2.4-.4zM1751.1 334c-4 3.3-7.2 6-7 6 2.2-.1 13.3-5.1 13.2-5.9-.2-.6.2-2.2.7-3.6.5-1.4.8-2.5.7-2.5-.1.1-3.5 2.8-7.6 6zM1731.5 341.6c-3.8 3.1-7.2 5.8-7.5 6.1-.3.2 2-.5 5-1.7 3-1.3 6.2-2.5 7.2-2.7 1-.3 1.8-1.8 2-3.9.2-1.9.4-3.4.3-3.4 0 0-3.1 2.5-7 5.6zM3109 891.9c-2.5 2.1-12.6 10.5-22.5 18.7s-19.6 16.3-21.5 18c-1.9 1.7-12.5 11-23.5 20.7-11 9.6-20.9 18.3-22 19.3-1.1 1.1-4.1 3.7-6.5 5.8-36.1 31.6-44.2 40.8-51 57.5-8 19.6-9.9 33.1-9.5 66.6.3 23.9.6 30.8 2 39 .2 1.6.7 4.8 1 7 1 6.8 3.5 20.7 5 27.7.8 3.6 1.7 8.2 2.1 10.2.6 3.8 5.4 23 9.9 39.6 3.4 12.2 13.4 42.9 17.8 54.4 4.4 11.4 7.6 14.5 18.4 17.9 14.5 4.6 29.9 7.1 51.8 8.5 24.4 1.5 103.6.6 117-1.3 1.7-.2 6.4-.7 10.5-1 11.6-.9 31-3.3 48-6 25.1-4 33.1-6.2 48-13.1 14-6.4 22.9-7.6 58.5-7.9 37-.2 85.8 2.3 126 6.5 5 .5 11.9 1.2 15.5 1.5 3.6.3 8.5.8 11 1 2.5.2 7.4.7 11 1 15.6 1.4 48.8 5.1 72 8 1.9.2 6.2.7 9.5 1 3.3.4 7.1.8 8.5 1 1.4.2 5.6.7 9.3 1.1l6.8.6 7.7-7.3c8.7-8.3 15.7-14.5 17.7-15.6.7-.5 3.3-2.5 5.7-4.5 4.4-3.9 8.3-7 30.2-24.2 11.6-9.2 14.9-12.4 11.1-11-.8.4-1.5.1-1.5-.5s.5-1.1 1.1-1.1c.5 0 .8-.4.5-.8-.8-1.4 9.8-11.1 25.4-23.3 8-6.2 15.2-12.1 16.1-13.1.9-1 2.1-1.8 2.8-1.8.6 0 1.1-.5 1.1-1 0-.6-.7-1-1.5-1s-1.5-.4-1.5-.9c0-2 8.8-10.5 19.5-18.7 10.7-8.3 11.5-9.1 10.9-11.7-.5-2.4.1-3.5 4.4-7.6 2.8-2.7 6.6-6.1 8.7-7.6 2.2-1.7 3.4-3.4 3.1-4.2-.7-1.8.9-4.9 4.4-8.8 1.5-1.7 3-4.6 3.4-6.5 1.9-10.9 2.5-17.5 2.6-26.2 0-8.2-.2-9.6-1.5-9.2-1.2.5-1.3-.4-.8-6 .4-4.6.3-6.6-.6-6.6-.6 0-1.1 1-1.1 2.2 0 1.3-.5 3-1 3.8-.7 1.1-1-.4-1-4.8 0-5.4-.2-6.2-1.7-6-1.3.2-1.8-.4-1.8-2.1 0-1.4-.6-2.6-1.3-2.9-.6-.2-1.2.1-1.2.8 0 .6-.4.8-1 .5-.5-.3-1-1.7-1-3.1 0-2.1-.4-2.4-2-1.9-1.7.5-2 .2-2-2.6 0-2.6-.2-3-1.5-1.9-1.9 1.6-3.4.5-2.8-2 .6-2.4-1.8-2.7-3.7-.5-1.9 2.3-2.8 1.8-2.5-1.5.3-2.9-.8-4-2-2s-2.5.9-2.5-2c0-3-1.4-4.1-2.3-1.8-.8 2-2.8-1.3-2.1-3.5.7-2.3-.7-2.2-3.4.3-2.3 2.2-3.7 1.2-2.7-2 .4-1.4.2-2-.9-2-.8 0-1.8.4-2.1 1-1.2 1.9-2.5 1-2.1-1.4.6-3.2-.2-3.8-2.8-2.1-3.1 2.2-3.9 1.8-3.2-1.5.6-3.3 0-3.3-3.6-.2-1.7 1.4-1.8 1.3-1.8-1.6 0-3.7-.2-3.8-3.5-1.6-2.8 1.9-4.8 1-4-1.7.7-2.3-.7-2.5-2.5-.4-1.8 2.2-3.2.7-2.5-2.6.4-1.8.3-2.9-.4-2.9-.6 0-1.1.4-1.1.8 0 .5-1.3 1.8-2.9 3l-2.9 2.1.3-3.4c.4-4.1-1-4.5-4.4-1.4-1.8 1.7-2.5 1.9-3.1.9-.5-.7-.6-1.9-.3-2.6.7-1.9-1.3-2.6-2.7-.9-2 2.5-3.3 1.7-2.6-1.5.7-3.7.4-3.7-4-.4l-3.4 2.6v-3.1c0-1.7-.3-3.1-.6-3.1s-2 1.1-3.9 2.6c-3.7 2.8-5 2-3.9-2.3l.7-2.7-4.1 3.3-4.2 3.3v-7.4l-4 3.2-4 3.2V1014.9l-3.3 2.5c-4.1 3.2-4.9 3.2-4.7.3.4-3.9.1-3.9-4-.7l-4 3.2v-3.1c0-3.8-.9-3.9-4.9-.5-2.6 2.2-3.2 2.3-3.7 1-.3-.9-.4-2.3 0-3.1.3-.8.3-1.5 0-1.5-1 0-4.9 2.3-6.4 3.8-1.3 1.4-1.5 1.3-1.8-1.6l-.3-3.1-4 2.4c-3.9 2.5-4.4 2.3-4-1.8.3-2.3-.4-2.2-4.3.8-4.3 3.2-5 3.2-4.2-.5.3-1.7.3-3 0-3-.4 0-2.4 1.4-4.5 3.1l-3.9 3.1v-3.1c0-3.8-.4-3.8-4.7-.5-3.3 2.5-3.8 2.2-3.4-1.9.3-2.3-.6-2.2-4.6.9-3.8 2.9-5.4 2.5-4.7-1.3.5-2.9.1-2.7-5.2 2-2.6 2.2-3.9.9-3-3l.7-2.5-3 2.1c-1.7 1.2-3.3 2.6-3.6 3.1-.4.6-1.3 1-2.2 1-1.2 0-1.4-.7-.9-3 .3-1.7.4-3 .2-3s-2 1.3-4.1 3c-4.7 3.8-5.5 3.8-5.5-.1v-3l-3.7 3c-4.2 3.5-5.7 3.2-4.8-1 .4-1.6.4-2.9.1-2.9-.3 0-2.2 1.6-4.3 3.5l-3.8 3.5-.5-3.7-.5-3.7-3.7 3.2c-3.7 3.3-5.5 3-4.3-.7 1-3.2-1-3.2-4-.1-3.8 3.9-5.6 4-4.5.1 1.2-4.2.2-4.5-4-1.1-2.1 1.7-4 3-4.3 3-.3 0-.7-1.4-.9-3.2l-.3-3.2-3.7 3.3c-3.1 2.7-3.9 3-4.4 1.7-.3-.9-.4-2.3 0-3.1.8-2.2-.5-1.9-4.4 1-3.6 2.7-5.7 1.8-3.9-1.7 1.3-2.5-.1-2.3-4.1.7-1.9 1.4-3.8 2.5-4.3 2.5s-.7-1.1-.5-2.5c.5-2.5-1.4-3.6-2.7-1.5-.3.6-2 1.7-3.7 2.6l-3.1 1.6.5-2.6c.6-3.1-.7-3.3-4.2-.6-3.5 2.8-5.2 2.6-4.4-.5.3-1.4.3-2.5-.1-2.5-.5 0-2.3 1.1-4.1 2.5-4.2 3.2-4.7 3.1-4.2-.5.3-1.7.3-3 0-3-.2 0-2.1 1.3-4.2 3-4.2 3.3-5.5 3.7-4.6 1.5.3-.8.3-2.2 0-3-.5-1.3-1.2-1.1-4 1-3.9 3-5.7 2.5-4.7-1.3l.6-2.7-3.6 2.8c-4.7 3.6-6.1 3.5-5.3-.3.7-3.6.3-3.7-3.2-.5-3.7 3.5-5.6 3.3-4.8-.5.7-3.8-.3-3.8-3.9 0-3.1 3.3-4.5 3.1-4.5-.6 0-3.1-1-3-4.6.3l-2.9 2.7-.3-3.2c-.4-3.9-1.1-4-5-.7-3.6 3-4.6 3.2-3.9.6.9-3.6-.7-4.2-4.3-1.6-3.6 2.6-5.2 2-4.3-1.6.7-2.4.4-2.4-3.7.6-3.8 2.8-5.3 2.4-4.4-1.1.8-3 .6-3-3.6.1-3.6 2.7-5.4 2.4-4.5-.6.8-2.5-1-2.4-4.3.2l-2.7 2.1-.3-2.6c-.4-3.1-1.5-3.3-4.9-.6-3.2 2.5-4.3 2.5-3.8 0 .6-2.9-1.2-3.4-4.1-1.1-3.5 2.7-4.4 2.6-4.4-.4s-.4-3.1-3.7-.5c-3.4 2.6-4.3 2.5-4.3-.5s-.7-3.1-3.6-.4c-2.7 2.5-4.8 1.6-4-1.7.8-3.1-.9-3.1-3.8.1-2.9 3.1-3.6 3.1-3.6.1 0-3.6-1.4-3.9-4.8-1.1s-4.4 2.2-3.6-1.9l.5-2.8-3 2.1c-3.7 2.7-4.1 2.6-4.1-.4 0-2.9-.7-3-3.4-1-2.9 2.2-3.9 1.8-3.4-1 .6-3-.5-3.2-3.9-.5-3.4 2.6-4.1 2.5-3.5-.5.5-3.1-1-3.2-4.6-.4l-2.7 2.1-.5-3.2c-.5-2.9-.6-3-2.5-1.6-3.3 2.5-4.8 2-4.1-1.4.7-3.5.3-3.7-2.5-.9-1.6 1.6-2.3 1.8-3.5.8-1.2-1-1.2-1.4-.2-2 .9-.6 1-1.1.2-1.9-.8-.8-1.9-.4-4.1 1.4-2.5 2.1-3.2 2.3-3.7 1.1-.3-.8-.3-2.2 0-3 .7-1.8.4-1.8-3.2-.5-2.6 1-2.6 1-2.1-2 .8-3.5.4-3.7-3-1-3.6 2.8-5.3 1.1-2.9-2.9.7-1.1.5-1.3-.7-.8-1 .4-2.4 1-3.2 1.3-1.1.5-1.5-.1-1.5-2 0-3-.3-3.1-3.5-1-2.4 1.6-2.5 1.6-2.5-1 0-2.8-1.8-3.4-3.8-1.4-.9.9-1.2.5-1.2-2.1 0-2.8-.3-3.1-2-2.6s-2 .2-2-2.3c0-2.2-.4-2.9-1.7-2.8-1.3.1-1.7-.5-1.6-2.2.3-2.6-1.8-3-4.1-.7s-2.9 1.8-2.3-2c.6-3.5.5-3.5-1.6-2-3 2.1-3.7 1.9-3.7-1 0-2.6-1.4-3.3-2.6-1.4-1 1.6-2.5-1.2-1.8-3.4.7-2.3-.2-2.2-3.4.4l-2.7 2.1-.3-3.1c-.3-3.3-1.1-3.8-2.9-2-1.8 1.8-3.5.1-2.3-2.2 1.5-2.7-1.6-2.6-4.7.2-2 2-2.3 2-2.9.5-.3-.9-.4-2.3 0-3.1.7-2 0-1.9-3.4.5-3.1 2.2-4.6 1.4-3.5-2 .8-2.4-.7-2.6-2.9-.4-2.1 2-3.8.9-3-2.2.8-3.1.1-3-4.2.2-3.5 2.7-3.8 2.5-3.4-2.5.2-2.4.1-2.4-3.7.8l-3.8 3.2-.3-3.6-.3-3.6-3 2.6c-3.8 3.1-5.1 3.2-4.9.2.4-3.8.1-3.9-3.2-1.1l-3.3 2.7-.3-2.6c-.4-3.2-1.5-3.4-4.9-.7-3.2 2.5-4.6 2.5-3.8.1.8-2.7-1-3.5-3.9-1.6-3 2-4.9 1.1-4-1.8.6-2.1.6-2.1-2-.4-3.2 2.2-4.5 1.6-3.8-1.8.6-3.2-.5-3.2-4 .2-2.7 2.6-2.8 2.6-2.9.5-.1-1.2-.3-2.7-.4-3.2-.1-.6-.3-1.3-.4-1.7 0-.4-.6-.2-1.3.5-2.2 2.2-4.1 1.4-3.4-1.3.7-2.9-.1-3.1-3.3-.9l-2.3 1.6.7-5.4.7-5.4-4-1.6c-2.2-.9-4.7-2.7-5.6-4-1.5-2.2-1.5-2.9-.2-6.6.9-2.3 1.4-4.2 1.3-4.1-.1 0-2.2 1.7-4.7 3.8zM3626 1295c-.8.5-1.1 1.2-.8 1.6 1 .9 3.8-.3 3.8-1.6 0-1.2-1-1.3-3 0zM371.1 2312.6c-5.5 4.3-7.5 4.4-6.9.4.3-1.7.4-3 .3-3-.1 0-2.2 1.6-4.6 3.5-2.4 1.9-4.7 3.5-5.1 3.5-.5 0-.8-1.6-.8-3.5v-3.5l-5.1 4c-2.8 2.2-5.5 4-6.1 4-.6 0-.8-1.5-.6-3.5.3-2.2 0-3.1-.7-2.6-.5.4-2.9 2.3-5.3 4.1-3.6 2.8-4.5 3.2-5.2 2-.5-.8-.6-2.6-.3-4 .6-2.2.2-2.1-4.7 1.8-6.4 5.1-8.4 5.4-7.8 1.2.4-2.7.3-2.9-1.3-1.8-1 .7-3.7 2.6-5.9 4.2-3.3 2.4-4.3 2.7-5 1.6-.4-.7-.4-2.5.1-3.8 1.1-2.8 1.4-2.9-6.2 3.1-5.9 4.7-8.4 4.9-7.5.6.5-2.4.3-2.9-.7-2.2-.6.6-3.6 2.9-6.5 5.1-6.5 5.1-8.6 5.4-8 1.3.5-3.5.6-3.5-8.4 3.7-8.1 6.4-12.1 6.4-8.6-.1.9-1.7.1-1.4-3.3 1.4-2.4 1.9-13.3 10.6-24.1 19.3-13.1 10.5-19.5 16.2-19.2 17.1.3.8-.1 3.4-1 5.7-1.6 4.6-3.6 21.2-3.6 30.4 0 4.6.3 5.5 1.5 5 1.3-.4 1.5.7 1.5 6.9 0 7.5.5 8.6 2.8 6.3.9-.9 1.2-.2 1.2 3.2 0 4.3 0 4.3 2.1 2.4l2.1-1.9-.6 8.5c-.5 7.9-.3 8.2 1 2.2.8-4 2.2-1.4 2.3 4.4 0 6.3.4 7.2 2.5 5.5 1.1-.9 1.5-.7 2 1.4.4 1.4.4 3 .1 3.5-.8 1.3.8 1.3 2.2-.1.7-.7 1.2-.3 1.7 1.6.4 1.4.4 3 .1 3.5-.4.6-.2 1 .4 1 .5 0 1.3-.5 1.7-1.2 1.1-1.7 2.6 3 1.8 5.6-.6 2-.6 2.1 1.4.3s2-1.8 2.7.2c.3 1.2.3 3.1-.1 4.3-.6 2.2-.6 2.3 1.3.5 1.9-1.6 2.1-1.6 2.7-.2.3.9.6 2.6.6 3.7 0 1.6.3 1.8 1.4.9 1.5-1.3 2.6.4 2.6 4.1 0 1.6.3 1.8 1.4.9 1.5-1.3 2.6.4 2.6 4.1 0 1.6.3 1.8 1.3.9 1.8-1.4 2.7-.4 2.7 3.2 0 2.3.3 2.7 1.3 1.9 1.9-1.6 4 .2 3.5 3-.4 2.4-.3 2.4 2 1.2 3.2-1.6 4.5-.9 3.9 2.2-.5 2.7.5 3.1 2.3.9 1.7-2.1 3-.9 3 2.7 0 3 .1 3 1.9 1.4 1.8-1.6 1.9-1.6 2.5.8.3 1.3.3 3.3-.1 4.3-.6 1.7-.6 1.7 1.4 0 2.1-1.8 2.1-1.8 2.8.2.3 1.2.3 3.1-.1 4.3-.7 2.3-.6 2.3 1.4.5 2-1.8 2-1.8 2.7.2.3 1.2.3 3.1-.1 4.3-.7 2.3-.6 2.3 1.4.4 2.1-1.8 2.1-1.8 2.8.8.3 1.4.3 3.4 0 4.3-.6 1.6-.6 1.6 1.2 0 2.3-2.1 3.2-1.3 3.2 2.6 0 2.4.3 2.7 1.4 1.8 1.8-1.5 4 1.1 3.1 3.8-.6 1.9-.5 2 2.1.6 3.4-1.7 4.7-1 4.1 2.1-.5 2.7.5 3.1 2.3.9 1.7-2.1 3-.9 3 2.7 0 2.7.2 2.9 1.6 1.7 2.1-1.7 3.7.6 2.8 4-.4 2.1-.3 2.3 1 1.2 2.3-1.9 3.9-.3 3.2 3.1-.5 2.6-.4 2.9.9 1.8 2.1-1.7 3.8-.2 3.3 3.1-.3 2.1-.1 2.6.6 1.9 1.9-1.9 3.6-1.1 3.6 1.9 0 2.5.3 2.8 2.6 2.3 2.5-.4 2.6-.3 2.2 2.6l-.4 3.1 2.7-2c3.7-2.6 3.9-2.5 3.9 1.8 0 3.4.1 3.5 1.8 2 2.7-2.4 3.2-2.1 3.2 1.9 0 3.1.2 3.5 1.5 2.4 2.2-1.8 3.8-.2 3.1 3.2-.5 2.6-.4 2.9.9 1.8 2.1-1.7 3.8-.2 3.3 3.1-.3 2.1-.1 2.6.6 1.9 2.2-2.2 3.8-1.1 3.4 2.5-.3 2.7-.1 3.2.9 2.3 2.2-1.8 4.6-.1 3.9 2.8-.7 2.5-.6 2.5 1.6 1 3.4-2.4 4.8-2 4.8 1.6 0 2.9.1 3 1.8 1.5 2.7-2.4 3.2-2.1 3.2 1.9 0 3.1.2 3.5 1.5 2.4 2.2-1.8 3.8-.2 3.1 3.2-.5 2.6-.4 2.9.9 1.8 2.1-1.7 3.8-.2 3.3 3.1-.3 2.1-.1 2.6.6 1.9 1.9-1.9 3.6-1.1 3.6 2 0 2.8.2 2.9 2.6 2 3.6-1.4 3.7-1.3 3.2 1.9-.4 2.6-.2 2.9 1.3 2 1-.5 2.1-1.4 2.4-1.9 1.1-1.8 2.5 0 2.5 3.2 0 2.7.2 2.9 1.6 1.7 2.1-1.7 3.7.6 2.8 4-.4 2.1-.3 2.3 1 1.2 2.2-1.8 3.9-.3 3.4 3-.3 2.1-.1 2.6.6 1.9 2.2-2.2 3.8-1.1 3.4 2.5-.3 2.3-.1 3.2.6 2.5.6-.6 1.9-1 2.9-1 1.6 0 1.8.6 1.5 2.9-.5 3.1.1 3.1 3.4.3 2.4-2 4.1-.5 3.4 3.1-.6 3-.6 3 1.5 1.2 1.7-1.7 2.2-1.7 3-.5.5.8.7 2.6.3 3.9-.4 2.1-.3 2.3 1 1.2 2.2-1.8 3.9-.3 3.4 3-.3 2.1-.1 2.6.6 1.9 2.2-2.2 3.8-1.1 3.4 2.5-.3 2.3-.1 3.2.6 2.5 1.3-1.3 4.3-1.3 5.1 0 .3.5.1 1.9-.6 3.1-1.2 2.3-.1 2 3.3-.9 2.3-1.9 4.1-.5 3.6 2.9-.4 2.8-.4 2.8 1.4 1.2 1.7-1.5 2.1-1.5 2.9-.3.5.8.7 2.6.3 3.9-.4 2.1-.3 2.3 1 1.2 2.2-1.8 3.9-.3 3.4 3-.3 2.1-.1 2.6.6 1.9 1.9-1.9 3.6-1.1 3.6 1.8 0 2.6.3 2.8 3.1 2.4 3-.4 3.1-.3 2.5 2.2-.8 3.2 0 3.3 3.1.5 2-2 2.3-2 2.9-.5.3.9.4 2.8.1 4.2-.4 2.4-.4 2.4 1.5.7 1.7-1.5 2.1-1.5 2.9-.3.5.8.7 2.6.3 3.9-.4 2.1-.3 2.3 1 1.2 2.2-1.8 3.9-.3 3.4 3-.3 2.1-.1 2.6.6 1.9 1.9-1.9 3.6-1.1 3.6 1.8 0 2.6.3 2.8 3.1 2.4 3-.4 3.2-.3 2.7 2.2-.6 2.9.3 3.4 2.2 1.1 2.3-2.8 4.3-1.8 3.8 1.9-.4 3.3-.3 3.3 1.8 1.9 2-1.3 2.3-1.2 2.8.5.4 1.1.3 2.7 0 3.7-.6 1.5-.4 1.6 1.5.6 1.7-1 2.2-.9 2.7.4.4.8.4 2.4.1 3.5-.4 1.7-.2 1.8 1.4.9 2.3-1.2 3.5.8 2.6 4.2-.4 1.6-.3 1.8.8.9 1.9-1.6 3.5-.4 3.5 2.5 0 1.7.4 2.3 1.4 1.9 1.6-.6 3.1 2.9 2.1 4.6-.8 1.4-.2 1.3 4.5-.6 2.3-.9 4-2.3 4.1-3.3.3-6.2.7-8.2 2-9.8 1.3-1.7 1.3-1.7-.4-.4-2.5 2-3.2.7-1.9-3.8.7-2.1 1.2-5.5 1.2-7.5 0-3.4-.2-3.6-2-2.6s-2 .8-2-2.6c0-2.9-.3-3.5-1.6-3-1.4.6-1.6-.1-1-5.6.7-6.5-.3-9.6-2.4-8.3-1 .6-1.1-.6-.6-5.6.7-6.6-.2-9.7-2.4-8.4-1 .6-1.1-.5-.6-5.2.8-7.2.1-9.6-2.5-8.8-2.2.7-2.2.7-.8-5 1.5-6 .6-9.5-2.3-8.7-1.8.4-2 .2-1.5-1.9 1.6-5.5 1.9-9.8.8-11.5-.9-1.7-1-1.6-1.1.8 0 1.5-.5 3-1 3.3-.7.4-.9-2.3-.5-8.4.3-5.5.1-9.2-.5-9.6-.6-.4-1 .8-1 2.9 0 2-.5 3.6-1.1 3.6-.9 0-1-2.8-.5-10 .5-6.7.3-10-.4-10-.5 0-1 1.6-1 3.5s-.5 3.5-1.1 3.5c-.8 0-1-3-.7-10.3.3-5.6.3-8.7.1-6.9-.3 2.5-.9 3.2-2.1 3-1.1-.2-1.6-1.2-1.5-2.8.9-14.5 1-17 .6-14.3-.3 2.5-.9 3.3-2.5 3.3-1.7 0-2-.5-1.5-2.8.3-1.6.8-6.2 1-10.3.3-4.1.3-6 0-4.3-.3 2.1-1.1 3.4-2.4 3.7-1.9.5-1.9.2-1.3-7 .7-7.5.7-7.6-1.5-7-2.1.5-2.2.4-1.5-7 .7-7.5.7-7.6-1.5-7-2.1.5-2.2.4-1.5-7 .7-7.6.7-7.6-1.6-7-2.1.5-2.2.4-1.6-3.6.3-2.3.8-7.1 1-10.7.2-3.6.2-5-.1-3.3-.3 2.5-.9 3.3-2.5 3.3-1.8 0-2-.4-1.4-3.3.4-1.7.8-6.4 1-10.2.2-3.9.2-5.5-.1-3.8-.3 2.5-.9 3.3-2.5 3.3-1.8 0-2-.4-1.4-3.3.4-1.7.8-6.4 1-10.2.2-3.9.2-5.5-.1-3.7-.3 2.5-.9 3.2-2.1 3-1-.2-1.6-1.2-1.5-2.3.7-7 1.1-18.4.5-15.6-.4 1.9-1.3 3.6-2.1 3.9-1.1.4-1.3-1.4-.7-10.4.5-10.6.4-11.8-.8-6.2-.4 1.6-1.1 2.8-1.8 2.8s-.9-3.1-.5-10.8c.6-10.5.5-11.5-.7-6-.4 1.6-1.1 2.8-1.7 2.8-.8 0-1-3.5-.6-11.3.5-9.2.4-10.5-.5-7.5-2.1 7-3.1 4.2-2.3-6.7.5-7.4.4-10.5-.4-10.5-.6 0-1.1 1.6-1.1 3.5s-.5 3.5-1.1 3.5c-.8 0-.9-3-.4-10.5.5-7.4.4-10.5-.4-10.5-.6 0-1.1 1.3-1.1 3 0 1.6-.5 3-1.1 3-.8 0-.9-3.1-.4-10.6.7-10.4.7-10.6-1.3-10-2 .7-2 .4-1.5-7 .6-7.4.5-7.6-1.5-7-2 .7-2 .4-1.5-7 .6-7.5.6-7.6-1.5-7-2.1.7-2.2.6-1.5-7 .6-7.6.6-7.7-1.5-7.2-1.9.5-2.2.2-2.2-2.8 0-3.1-.2-3.4-1.9-2.5-2.2 1.2-3.1.5-3.1-2.6 0-2.9-.4-2.9-4.6.4-2.9 2.2-3.7 2.4-4.5 1.2-.5-.8-.6-2.2-.3-3.2.7-2.3-.1-2.2-4 .8-4.3 3.3-5.6 3.2-5.6-.6v-3.1l-4 3.2c-4.7 3.8-7.6 3.5-6.6-.6.7-2.6.7-2.6-4.2 1-2.7 2-5.2 3.6-5.6 3.6-.3 0-.6-1.4-.6-3 0-3.7-.6-3.7-4.9 0-3.9 3.4-5.1 3.1-5.1-1.1v-3l-3.9 3.2c-4.6 3.7-7.5 3.4-6.5-.6.3-1.4.5-2.5.3-2.4-.2 0-2.4 1.6-4.8 3.5zM547.5 2720.9c-.3.5-.1 1.2.4 1.5.5.3 1.1-.1 1.5-.9.6-1.6-.9-2.1-1.9-.6zM551.6 2725.8c-.2.4-.1 1.4.5 2.2.7 1.2.9 1 .9-.8 0-2.3-.5-2.8-1.4-1.4zM538.7 2883.8c-1.8 1.9-2.7 3.9-2.7 6.1 0 2.4-.9 4.2-3.5 6.8-2.6 2.6-3.5 4.4-3.5 6.7 0 2.4-1 4.3-3.7 7.1-2.3 2.4-3.7 4.7-3.5 5.8.5 2.9-1.7 7.4-4.5 9.2-1.7 1.1-2.2 2.2-1.8 3.5.7 2.3-.8 5.4-4.3 9.2-1.5 1.7-2.5 4-2.7 6.3-.1 2.5-1.2 4.6-3.4 6.9-1.8 1.8-3.2 4-3.1 4.7.5 3.2-.2 5-3 8.2-1.9 2.3-3 4.5-3 6.5 0 2.1-1.1 4.4-3.2 6.8-2.2 2.5-3.3 4.9-3.5 7.2-.1 2.5-1.1 4.5-3.3 6.5-2.2 2.1-3 3.7-3 6.3 0 2.4-.9 4.3-3 6.6-2.1 2.2-3 4.1-3 6.5 0 2.3-.9 4.2-3 6.5-2.1 2.1-3 4.1-3 6.3s-1 4.2-3.2 6.6c-2.4 2.4-3.2 4.2-3 6.1.2 1.8-.7 3.7-3 6.3-2.2 2.6-3.3 4.9-3.4 7.2 0 2.2-1 4.3-2.7 6.1-1.8 1.8-2.7 3.9-2.7 6s-1 4.3-3 6.5c-2.1 2.5-3 4.5-3 7 0 2.7-.8 4.4-3 6.7-2.2 2.2-3 4-3 6.6 0 2.5-.8 4.3-2.7 6.2-1.9 1.9-2.8 3.9-2.9 6.7-.2 2.9-.9 4.6-2.9 6.2-1.9 1.7-2.7 3.5-2.9 6.4-.2 2.7-1.2 4.9-3 6.8-1.7 1.7-2.6 3.8-2.6 5.8 0 1.9-1 4.4-2.6 6.3-1.6 1.8-2.8 4.5-2.9 6.6-.1 2-1.2 4.5-2.6 6-1.4 1.5-2.3 3.5-2.1 4.8.2 1.2-.9 3.9-2.3 5.9-1.4 2.1-2.5 5.1-2.5 6.7 0 1.6-1.1 4.2-2.5 5.8-1.7 2-2.5 4.2-2.5 6.6 0 2.7-.7 4.4-2.7 6.2-2.1 1.9-2.8 3.6-3 6.6-.1 2.6-.9 4.8-2.5 6.5-1.2 1.3-2.3 3.7-2.4 5.4-.1 1.6-1 4.1-2 5.6-1 1.6-1.7 3.9-1.5 5.3.1 1.6-.8 3.7-2.3 5.5-1.8 2-2.6 4.2-2.6 6.7 0 2.4-.8 4.6-2.5 6.6-1.4 1.7-2.5 4.2-2.5 6 0 1.6-1 4.2-2.2 5.8-1.3 1.5-2.1 3.6-2 4.6.2 1-.6 3.5-1.7 5.6-1.1 2-2.2 5.5-2.5 7.7-.3 2.3-1.4 4.7-2.6 5.7-1.3 1-2 2.8-2 5 0 1.9-.7 4.3-1.5 5.4-.8 1-1.5 3.4-1.5 5.1 0 2-.9 4.2-2.1 5.4-1.4 1.4-2.3 3.7-2.5 6.6-.1 2.6-1.1 5.4-2.1 6.5-1 1.1-1.7 2.8-1.5 3.8.2 1-.6 3.3-1.8 5.2-1.1 1.9-2 5-2 7.4 0 2.7-.6 4.7-1.9 5.8-1 .9-1.7 2.5-1.4 3.5.2 1-.5 3.3-1.6 5.2-1.2 2-2.1 5.1-2.1 7.4 0 2.3-.6 4.7-1.2 5.3-.7.7-1.3 2.6-1.4 4.3-.1 1.6-.9 3.8-1.8 4.8-.9.9-1.8 3.9-2.1 6.6-.3 2.7-.9 5.3-1.5 5.9-.5.5-1 2.9-1 5.2 0 3-.6 4.7-1.8 5.6-1.8 1.3-4.2 10.8-4.2 16.6 0 1.7-.4 3.4-1 3.7-.5.3-1 2.4-1 4.6 0 2.7-.7 4.6-2.2 6.1-1.7 1.7-2.4 4.4-3.7 15.4-.9 7.3-1.9 13.6-2.3 14-.5.4-.8 2.7-.8 5 0 2.4-.4 4.6-1 4.9-.5.3-1 2.2-1 4.1 0 2.2-.5 3.4-1.4 3.4-1.7 0-1.5-1-7.1 49.2-5 45.2-5.2 49.2-2.9 51.5 1.1 1.1 1.4 2.6 1 4.5-.3 1.6-.9 8.6-1.2 15.6-.7 11.8-.6 12.6 1 11.3 1.5-1.3 1.6-.5 1 11.3-.6 11.5-.6 12.6.9 12 1.5-.5 1.7.3 1.7 7 0 6.3.2 7.4 1.5 7 1.3-.5 1.5.6 1.5 7 0 7.2.1 7.6 1.9 6.7 1.8-1 1.9-.7 1.4 7.2-.5 6.8-.3 8 .8 6.9 2.1-2 2.9-1.4 2.9 2.3 0 3.2.2 3.5 2 2.5 1.9-1 1.9-.8 1.3 7.2-.5 6.9-.3 8.1.8 7 2.1-2 2.9-1.4 2.9 2.3 0 3.3.2 3.5 2 2.5s2-.8 2 2.5.2 3.5 2 2.5 2-.8 2 2.5.2 3.5 2 2.5 2-.8 2 2.5.2 3.5 2 2.5 2-.8 2 2.5.2 3.5 2 2.5 2-.8 2 2.5.2 3.5 2 2.5c2.1-1.1 2.5-.2 2 4.3-.1 1.6.2 1.7 1.9.7 2.2-1.1 2.6-.3 2.1 4.3-.1 1.6.2 1.7 1.9.8 1.6-.9 2.1-.8 2.6.8.3 1 .2 2.6-.1 3.6-.6 1.5-.4 1.6 1.5.6 1.7-1 2.2-.9 2.7.4.4.8.4 2.4.1 3.5-.4 1.7-.2 1.8 1.5.9 2.8-1.5 5.1-.4 4.3 2.1-.7 2.4.7 2.6 2.5.5 2.1-2.5 4-1.8 4 1.5 0 2.8.2 3 2 2 2.3-1.3 3.6.6 2.7 4-.5 1.8-.3 1.9 2.4.5 3.8-2 3.9-2 3.9 1.6v3l2.9-2c2.8-2.1 3-2.1 3.6-.3.3 1.1.2 2.7-.1 3.7-.6 1.6-.5 1.6 2.4.1 4.2-2.2 4.5-2.1 4 1.8l-.4 3.4 3.3-2.5c2.9-2.2 3.4-2.3 3.9-.9.3.9.4 2.5.1 3.6-.5 2.1-.5 2.1 2.8 0 4.4-2.7 4.8-2.6 4.3 1.4l-.4 3.4 2.7-1.9c3.6-2.5 3.9-2.4 3.9 1.1 0 1.6.3 3 .6 3s2.1-1.2 4-2.6c3.6-2.8 4-2.5 3.4 3-.2 1.9-.1 1.9 2.2.3 5-3.6 5.8-3.9 5.9-2 .1 1 0 2.6-.1 3.7-.2 1.9 1 1.6 4.2-1.2 2.6-2.2 5.2-.8 4.4 2.4l-.7 2.5 3.8-2.5c4.9-3.4 5.6-3.3 5.1.8l-.4 3.4 4.4-3.4c4.9-3.8 6.6-3.6 6 .7-.5 3.1-.7 3.2 5.5-1.8 3.8-3 4.7-2.9 4.7.7 0 1.6.2 3 .5 3s2.5-1.6 5.1-3.5c5.9-4.5 7.9-4.6 7-.4-.5 2.4-.3 2.9.7 2.2 13-10.2 13.1-10.3 14.5-8.9 1.1 1.1 1.2 1.8.1 3.7-1.2 2.3-1.1 2.3.9.9 1.2-.8 11.9-9.2 23.7-18.5l21.6-17-.6-115.5c-.3-63.5-.7-136.7-1-162.5-.3-25.9-.7-92.9-1-149-.3-56.1-.7-126.1-1-155.5-.3-29.4-.8-97.6-1.1-151.5-.3-53.9-.7-98.1-.8-98.2-.1-.2-1.5 1-2.9 2.5z"/></svg>